<svg width="40" height="40" viewBox="0 0 40 40" fill="none" xmlns="http://www.w3.org/2000/svg">
<path d="M33.75 30C32.977 30.0023 32.2236 30.2438 31.5933 30.6915C30.9631 31.1391 30.4868 31.7709 30.23 32.5H27.0225L25.075 28.605C28.0187 26.865 30 23.6675 30 20C30 16.3325 28.0187 13.135 25.075 11.395L27.0225 7.5H30.23C30.4868 8.22914 30.9631 8.8609 31.5933 9.30853C32.2236 9.75616 32.977 9.9977 33.75 10C35.8175 10 37.5 8.3175 37.5 6.25C37.5 4.1825 35.8175 2.5 33.75 2.5C32.977 2.5023 32.2236 2.74384 31.5933 3.19147C30.9631 3.6391 30.4868 4.27086 30.23 5H27.0225C26.5578 4.99857 26.102 5.12733 25.7068 5.37167C25.3116 5.61602 24.9927 5.96619 24.7863 6.3825L22.7775 10.3988C21.895 10.1438 20.965 10 20 10C19.035 10 18.105 10.1437 17.2225 10.4L15.2125 6.38C15.0056 5.96397 14.6864 5.61418 14.2909 5.37028C13.8955 5.12638 13.4396 4.99811 12.975 5H9.77125C9.51436 4.27066 9.03793 3.63876 8.40742 3.19111C7.77691 2.74346 7.02326 2.50204 6.25 2.5C4.1825 2.5 2.5 4.1825 2.5 6.25C2.5 8.3175 4.1825 10 6.25 10C7.02304 9.9977 7.77642 9.75616 8.40668 9.30853C9.03694 8.8609 9.51318 8.22914 9.77 7.5H12.9775L14.925 11.395C11.98 13.135 10 16.3325 10 20C10 23.6675 11.98 26.865 14.925 28.605L12.9775 32.5H9.77C9.51318 31.7709 9.03694 31.1391 8.40668 30.6915C7.77642 30.2438 7.02304 30.0023 6.25 30C4.1825 30 2.5 31.6825 2.5 33.75C2.5 35.8175 4.1825 37.5 6.25 37.5C7.02304 37.4977 7.77642 37.2562 8.40668 36.8085C9.03694 36.3609 9.51318 35.7291 9.77 35H12.9775C13.4422 35.0014 13.898 34.8727 14.2932 34.6283C14.6884 34.384 15.0073 34.0338 15.2137 33.6175L17.2225 29.6012C18.105 29.8562 19.035 30 20 30C20.965 30 21.895 29.8563 22.7775 29.6L24.7863 33.6175C24.9927 34.0338 25.3116 34.384 25.7068 34.6283C26.102 34.8727 26.5578 35.0014 27.0225 35H30.23C30.4868 35.7291 30.9631 36.3609 31.5933 36.8085C32.2236 37.2562 32.977 37.4977 33.75 37.5C35.8175 37.5 37.5 35.8175 37.5 33.75C37.5 31.6825 35.8175 30 33.75 30ZM33.75 5C34.0718 5.0144 34.3757 5.15238 34.5984 5.38523C34.8211 5.61807 34.9453 5.92783 34.9453 6.25C34.9453 6.57217 34.8211 6.88193 34.5984 7.11477C34.3757 7.34762 34.0718 7.4856 33.75 7.5C33.4185 7.5 33.1005 7.3683 32.8661 7.13388C32.6317 6.89946 32.5 6.58152 32.5 6.25C32.5 5.91848 32.6317 5.60054 32.8661 5.36612C33.1005 5.1317 33.4185 5 33.75 5ZM6.25 7.5C5.92815 7.4856 5.62426 7.34762 5.4016 7.11477C5.17893 6.88193 5.05467 6.57217 5.05467 6.25C5.05467 5.92783 5.17893 5.61807 5.4016 5.38523C5.62426 5.15238 5.92815 5.0144 6.25 5C6.57185 5.0144 6.87574 5.15238 7.0984 5.38523C7.32107 5.61807 7.44533 5.92783 7.44533 6.25C7.44533 6.57217 7.32107 6.88193 7.0984 7.11477C6.87574 7.34762 6.57185 7.4856 6.25 7.5ZM6.25 35C5.92815 34.9856 5.62426 34.8476 5.4016 34.6148C5.17893 34.3819 5.05467 34.0722 5.05467 33.75C5.05467 33.4278 5.17893 33.1181 5.4016 32.8852C5.62426 32.6524 5.92815 32.5144 6.25 32.5C6.57185 32.5144 6.87574 32.6524 7.0984 32.8852C7.32107 33.1181 7.44533 33.4278 7.44533 33.75C7.44533 34.0722 7.32107 34.3819 7.0984 34.6148C6.87574 34.8476 6.57185 34.9856 6.25 35ZM12.8575 20C12.8575 16.0625 16.0612 12.8575 20 12.8575C23.9388 12.8575 27.1425 16.0612 27.1425 20C27.1425 23.9388 23.9388 27.1425 20 27.1425C16.0612 27.1425 12.8575 23.9388 12.8575 20ZM33.75 35C33.4282 34.9856 33.1243 34.8476 32.9016 34.6148C32.6789 34.3819 32.5547 34.0722 32.5547 33.75C32.5547 33.4278 32.6789 33.1181 32.9016 32.8852C33.1243 32.6524 33.4282 32.5144 33.75 32.5C34.0718 32.5144 34.3757 32.6524 34.5984 32.8852C34.8211 33.1181 34.9453 33.4278 34.9453 33.75C34.9453 34.0722 34.8211 34.3819 34.5984 34.6148C34.3757 34.8476 34.0718 34.9856 33.75 35ZM23.2375 15.6963L25 17.5L18.75 23.75L15 20L16.805 18.195L18.755 20.2225L23.2375 15.6963Z" fill="#1E48F6" fill-opacity="0.26" stroke="#1E48F6"/>
</svg>
