<svg width="70" height="70" viewBox="0 0 70 70" fill="none" xmlns="http://www.w3.org/2000/svg">
<circle cx="35" cy="35" r="35" fill="#1E48F6"/>
<mask id="path-2-outside-1_1302_4983" maskUnits="userSpaceOnUse" x="11" y="19" width="45" height="33" fill="black">
<rect fill="white" x="11" y="19" width="45" height="33"/>
<path d="M24.36 50.4C24.3333 49.8667 24.2933 49.3467 24.24 48.84C24.2133 48.3067 24.1867 47.7867 24.16 47.28C24.1333 46.8267 24.1067 46.3867 24.08 45.96C24.0533 45.5067 24.0267 45.0667 24 44.64C23.9733 44.1867 23.9467 43.7867 23.92 43.44C23.8933 43.0667 23.8667 42.7333 23.84 42.44L22.92 44.64C22.7333 45.0667 22.5333 45.5067 22.32 45.96C22.1333 46.3867 21.9467 46.8133 21.76 47.24C21.5467 47.7467 21.32 48.2533 21.08 48.76C20.84 49.24 20.6 49.7333 20.36 50.24L13.56 49.64C14.2267 48.4667 14.8933 47.2933 15.56 46.12C16.2267 44.92 16.8933 43.7467 17.56 42.6C18.2267 41.4267 18.8667 40.24 19.48 39.04C20.0933 37.8133 20.68 36.5733 21.24 35.32C21.08 34.12 20.92 33.0533 20.76 32.12C20.6267 31.1867 20.4667 30.2667 20.28 29.36C20.0933 28.5067 19.8933 27.5867 19.68 26.6C19.4667 25.5867 19.2533 24.5467 19.04 23.48L25.44 20.84C25.5733 22.12 25.7333 23.5067 25.92 25C26 25.7467 26.08 26.48 26.16 27.2C26.24 27.8933 26.3067 28.56 26.36 29.2L28.2 25.2C28.4933 24.5333 28.7867 23.88 29.08 23.24C29.4 22.5733 29.72 21.9067 30.04 21.24L35.84 22.8C34.9067 24.3733 34.08 25.8 33.36 27.08C32.6667 28.36 32 29.6533 31.36 30.96C30.72 32.2667 30 33.76 29.2 35.44C29.4933 37.4667 29.92 39.6133 30.48 41.88C31.04 44.1467 31.56 46.24 32.04 48.16C31.9867 48.1867 31.6667 48.28 31.08 48.44C30.4933 48.5733 29.7067 48.7867 28.72 49.08C27.76 49.3467 26.88 49.6 26.08 49.84C25.3067 50.0533 24.7333 50.24 24.36 50.4ZM35.3253 50.04C36.1253 46.44 36.8853 42.92 37.6053 39.48C37.8986 38.0933 38.192 36.6133 38.4853 35.04C38.8053 33.44 39.1253 31.8267 39.4453 30.2C39.7653 28.5733 40.0586 27.04 40.3253 25.6C40.592 24.1333 40.8053 22.8533 40.9653 21.76C42.032 21.44 43.1786 21.1467 44.4053 20.88C45.6586 20.6133 46.7786 20.48 47.7653 20.48C49.3653 20.48 50.632 20.8267 51.5653 21.52C52.4986 22.1867 53.1653 23.0933 53.5653 24.24C53.9653 25.3867 54.1653 26.64 54.1653 28C54.1653 29.4933 53.8853 30.9333 53.3253 32.32C52.792 33.68 52.0586 34.9067 51.1253 36C50.2186 37.0933 49.1653 37.96 47.9653 38.6C46.792 39.24 45.5653 39.56 44.2853 39.56H43.8453C43.632 40.4667 43.432 41.4533 43.2453 42.52C43.0586 43.5867 42.8986 44.5733 42.7653 45.48C42.6586 46.0133 42.5653 46.5467 42.4853 47.08C42.4053 47.6133 42.3253 48.1467 42.2453 48.68L35.3253 50.04ZM44.6453 35.36C45.2586 35.2 45.872 34.8 46.4853 34.16C47.0986 33.4933 47.6053 32.6533 48.0053 31.64C48.4053 30.6267 48.6053 29.52 48.6053 28.32C48.6053 27.3333 48.3786 26.5867 47.9253 26.08C47.4986 25.5733 47.0186 25.32 46.4853 25.32C46.192 27.08 45.8986 28.7467 45.6053 30.32C45.312 31.8933 44.992 33.5733 44.6453 35.36Z"/>
</mask>
<path d="M24.36 50.4C24.3333 49.8667 24.2933 49.3467 24.24 48.84C24.2133 48.3067 24.1867 47.7867 24.16 47.28C24.1333 46.8267 24.1067 46.3867 24.08 45.96C24.0533 45.5067 24.0267 45.0667 24 44.64C23.9733 44.1867 23.9467 43.7867 23.92 43.44C23.8933 43.0667 23.8667 42.7333 23.84 42.44L22.92 44.64C22.7333 45.0667 22.5333 45.5067 22.32 45.96C22.1333 46.3867 21.9467 46.8133 21.76 47.24C21.5467 47.7467 21.32 48.2533 21.08 48.76C20.84 49.24 20.6 49.7333 20.36 50.24L13.56 49.64C14.2267 48.4667 14.8933 47.2933 15.56 46.12C16.2267 44.92 16.8933 43.7467 17.56 42.6C18.2267 41.4267 18.8667 40.24 19.48 39.04C20.0933 37.8133 20.68 36.5733 21.24 35.32C21.08 34.12 20.92 33.0533 20.76 32.12C20.6267 31.1867 20.4667 30.2667 20.28 29.36C20.0933 28.5067 19.8933 27.5867 19.68 26.6C19.4667 25.5867 19.2533 24.5467 19.04 23.48L25.44 20.84C25.5733 22.12 25.7333 23.5067 25.92 25C26 25.7467 26.08 26.48 26.16 27.2C26.24 27.8933 26.3067 28.56 26.36 29.2L28.2 25.2C28.4933 24.5333 28.7867 23.88 29.08 23.24C29.4 22.5733 29.72 21.9067 30.04 21.24L35.84 22.8C34.9067 24.3733 34.08 25.8 33.36 27.08C32.6667 28.36 32 29.6533 31.36 30.96C30.72 32.2667 30 33.76 29.2 35.44C29.4933 37.4667 29.92 39.6133 30.48 41.88C31.04 44.1467 31.56 46.24 32.04 48.16C31.9867 48.1867 31.6667 48.28 31.08 48.44C30.4933 48.5733 29.7067 48.7867 28.72 49.08C27.76 49.3467 26.88 49.6 26.08 49.84C25.3067 50.0533 24.7333 50.24 24.36 50.4ZM35.3253 50.04C36.1253 46.44 36.8853 42.92 37.6053 39.48C37.8986 38.0933 38.192 36.6133 38.4853 35.04C38.8053 33.44 39.1253 31.8267 39.4453 30.2C39.7653 28.5733 40.0586 27.04 40.3253 25.6C40.592 24.1333 40.8053 22.8533 40.9653 21.76C42.032 21.44 43.1786 21.1467 44.4053 20.88C45.6586 20.6133 46.7786 20.48 47.7653 20.48C49.3653 20.48 50.632 20.8267 51.5653 21.52C52.4986 22.1867 53.1653 23.0933 53.5653 24.24C53.9653 25.3867 54.1653 26.64 54.1653 28C54.1653 29.4933 53.8853 30.9333 53.3253 32.32C52.792 33.68 52.0586 34.9067 51.1253 36C50.2186 37.0933 49.1653 37.96 47.9653 38.6C46.792 39.24 45.5653 39.56 44.2853 39.56H43.8453C43.632 40.4667 43.432 41.4533 43.2453 42.52C43.0586 43.5867 42.8986 44.5733 42.7653 45.48C42.6586 46.0133 42.5653 46.5467 42.4853 47.08C42.4053 47.6133 42.3253 48.1467 42.2453 48.68L35.3253 50.04ZM44.6453 35.36C45.2586 35.2 45.872 34.8 46.4853 34.16C47.0986 33.4933 47.6053 32.6533 48.0053 31.64C48.4053 30.6267 48.6053 29.52 48.6053 28.32C48.6053 27.3333 48.3786 26.5867 47.9253 26.08C47.4986 25.5733 47.0186 25.32 46.4853 25.32C46.192 27.08 45.8986 28.7467 45.6053 30.32C45.312 31.8933 44.992 33.5733 44.6453 35.36Z" fill="white"/>
<path d="M24.36 50.4L23.3612 50.4499L23.433 51.8852L24.7539 51.3191L24.36 50.4ZM24.24 48.84L23.2412 48.8899L23.2426 48.9174L23.2455 48.9447L24.24 48.84ZM24.16 47.28L25.1586 47.2274L25.1583 47.2213L24.16 47.28ZM24.08 45.96L23.0817 46.0187L23.0819 46.0224L24.08 45.96ZM24 44.64L23.0017 44.6987L23.0019 44.7024L24 44.64ZM23.92 43.44L22.9225 43.5112L22.9229 43.5167L23.92 43.44ZM23.84 42.44L24.8359 42.3495L22.9174 42.0542L23.84 42.44ZM22.92 44.64L23.8362 45.0408L23.8394 45.0333L23.8426 45.0258L22.92 44.64ZM22.32 45.96L21.4152 45.5342L21.4093 45.5466L21.4038 45.5592L22.32 45.96ZM21.76 47.24L20.8438 46.8391L20.8384 46.8519L21.76 47.24ZM21.08 48.76L21.9744 49.2072L21.9792 49.1977L21.9837 49.1881L21.08 48.76ZM20.36 50.24L20.2721 51.2361L20.9657 51.2973L21.2637 50.6681L20.36 50.24ZM13.56 49.64L12.6905 49.146L11.9216 50.4993L13.4721 50.6361L13.56 49.64ZM15.56 46.12L16.4295 46.614L16.4342 46.6056L15.56 46.12ZM17.56 42.6L18.4245 43.1026L18.4295 43.094L17.56 42.6ZM19.48 39.04L20.3705 39.4951L20.3744 39.4872L19.48 39.04ZM21.24 35.32L22.153 35.7279L22.2687 35.469L22.2312 35.1878L21.24 35.32ZM20.76 32.12L19.7701 32.2614L19.772 32.2752L19.7744 32.289L20.76 32.12ZM20.28 29.36L21.2595 29.1583L21.2569 29.1463L20.28 29.36ZM19.68 26.6L18.7014 26.806L18.7026 26.8113L19.68 26.6ZM19.04 23.48L18.6587 22.5556L17.8981 22.8693L18.0594 23.6761L19.04 23.48ZM25.44 20.84L26.4346 20.7364L26.296 19.4052L25.0587 19.9156L25.44 20.84ZM25.92 25L26.9143 24.8935L26.9134 24.8847L26.9123 24.876L25.92 25ZM26.16 27.2L25.1661 27.3104L25.1666 27.3146L26.16 27.2ZM26.36 29.2L25.3635 29.283L25.6793 33.0727L27.2685 29.6179L26.36 29.2ZM28.2 25.2L29.1085 25.6179L29.112 25.6104L29.1153 25.6027L28.2 25.2ZM29.08 23.24L28.1785 22.8073L28.1746 22.8153L28.1709 22.8233L29.08 23.24ZM30.04 21.24L30.2997 20.2743L29.4978 20.0586L29.1385 20.8073L30.04 21.24ZM35.84 22.8L36.7001 23.3102L37.3725 22.1767L36.0997 21.8343L35.84 22.8ZM33.36 27.08L32.4884 26.5897L32.4845 26.5967L32.4807 26.6037L33.36 27.08ZM31.36 30.96L30.4619 30.5201L30.4619 30.5201L31.36 30.96ZM29.2 35.44L28.2971 35.0101L28.1669 35.2835L28.2103 35.5832L29.2 35.44ZM30.48 41.88L29.5092 42.1198L29.5092 42.1198L30.48 41.88ZM32.04 48.16L32.4872 49.0544L33.2047 48.6957L33.0101 47.9175L32.04 48.16ZM31.08 48.44L31.3016 49.4151L31.3225 49.4104L31.3431 49.4048L31.08 48.44ZM28.72 49.08L28.9876 50.0435L28.9963 50.0411L29.005 50.0385L28.72 49.08ZM26.08 49.84L26.3459 50.804L26.3567 50.801L26.3673 50.7978L26.08 49.84ZM25.3588 50.3501C25.3312 49.7993 25.2898 49.261 25.2345 48.7353L23.2455 48.9447C23.2968 49.4323 23.3355 49.934 23.3612 50.4499L25.3588 50.3501ZM25.2388 48.7901C25.212 48.2559 25.1853 47.735 25.1586 47.2274L23.1614 47.3326C23.188 47.8383 23.2146 48.3574 23.2412 48.8899L25.2388 48.7901ZM25.1583 47.2213C25.1315 46.7668 25.1048 46.3256 25.0781 45.8976L23.0819 46.0224C23.1085 46.4478 23.1351 46.8865 23.1617 47.3387L25.1583 47.2213ZM25.0783 45.9013C25.0515 45.4468 25.0248 45.0056 24.9981 44.5776L23.0019 44.7024C23.0285 45.1278 23.0551 45.5665 23.0817 46.0187L25.0783 45.9013ZM24.9983 44.5813C24.9714 44.1236 24.9443 43.7174 24.9171 43.3633L22.9229 43.5167C22.949 43.8559 22.9753 44.2497 23.0017 44.6987L24.9983 44.5813ZM24.9175 43.3688C24.8904 42.9906 24.8633 42.6507 24.8359 42.3495L22.8441 42.5305C22.8701 42.816 22.8962 43.1427 22.9225 43.5112L24.9175 43.3688ZM22.9174 42.0542L21.9974 44.2542L23.8426 45.0258L24.7626 42.8258L22.9174 42.0542ZM22.0038 44.2392C21.8211 44.6569 21.6249 45.0885 21.4152 45.5342L23.2248 46.3858C23.4418 45.9248 23.6456 45.4765 23.8362 45.0408L22.0038 44.2392ZM21.4038 45.5592C21.2172 45.9858 21.0305 46.4125 20.8438 46.8392L22.6762 47.6408C22.8628 47.2142 23.0495 46.7875 23.2362 46.3608L21.4038 45.5592ZM20.8384 46.8519C20.6308 47.3449 20.4101 47.8382 20.1763 48.3319L21.9837 49.1881C22.2299 48.6685 22.4625 48.1485 22.6816 47.6281L20.8384 46.8519ZM20.1856 48.3128C19.9423 48.7994 19.6992 49.2991 19.4563 49.8119L21.2637 50.6681C21.5008 50.1675 21.7377 49.6806 21.9744 49.2072L20.1856 48.3128ZM20.4479 49.2439L13.6479 48.6439L13.4721 50.6361L20.2721 51.2361L20.4479 49.2439ZM14.4295 50.134C15.0961 48.9607 15.7628 47.7873 16.4295 46.614L14.6905 45.626C14.0239 46.7993 13.3572 47.9727 12.6905 49.146L14.4295 50.134ZM16.4342 46.6056C17.0978 45.4111 17.7612 44.2435 18.4245 43.1026L16.6955 42.0974C16.0254 43.2499 15.3556 44.4289 14.6858 45.6344L16.4342 46.6056ZM18.4295 43.094C19.1034 41.9079 19.7504 40.7082 20.3704 39.4951L18.5896 38.5849C17.9829 39.7718 17.3499 40.9454 16.6905 42.106L18.4295 43.094ZM20.3744 39.4872C20.9942 38.2476 21.5871 36.9945 22.153 35.7279L20.327 34.9121C19.7729 36.1522 19.1924 37.3791 18.5856 38.5928L20.3744 39.4872ZM22.2312 35.1878C22.07 33.9787 21.9082 32.8994 21.7456 31.951L19.7744 32.289C19.9318 33.2073 20.09 34.2613 20.2488 35.4522L22.2312 35.1878ZM21.7499 31.9786C21.6138 31.0254 21.4503 30.0853 21.2595 29.1583L19.3005 29.5617C19.483 30.448 19.6395 31.3479 19.7701 32.2614L21.7499 31.9786ZM21.2569 29.1463C21.0704 28.2939 20.8706 27.3747 20.6574 26.3887L18.7026 26.8113C18.9161 27.7987 19.1162 28.7195 19.3031 29.5737L21.2569 29.1463ZM20.6586 26.394C20.4459 25.3841 20.2333 24.3474 20.0206 23.2839L18.0594 23.6761C18.2734 24.7459 18.4874 25.7892 18.7015 26.806L20.6586 26.394ZM19.4213 24.4044L25.8213 21.7644L25.0587 19.9156L18.6587 22.5556L19.4213 24.4044ZM24.4454 20.9436C24.5795 22.2314 24.7403 23.625 24.9277 25.124L26.9123 24.876C26.7263 23.3883 26.5671 22.0086 26.4346 20.7364L24.4454 20.9436ZM24.9257 25.1065C25.0058 25.8545 25.086 26.5891 25.1661 27.3104L27.1539 27.0896C27.074 26.3709 26.9942 25.6389 26.9143 24.8935L24.9257 25.1065ZM25.1666 27.3146C25.2455 27.9983 25.3111 28.6544 25.3635 29.283L27.3565 29.117C27.3023 28.4656 27.2345 27.7883 27.1534 27.0854L25.1666 27.3146ZM27.2685 29.6179L29.1085 25.6179L27.2915 24.7821L25.4515 28.7821L27.2685 29.6179ZM29.1153 25.6027C29.4067 24.9406 29.6979 24.2919 29.9891 23.6567L28.1709 22.8233C27.8754 23.4681 27.58 24.1261 27.2847 24.7973L29.1153 25.6027ZM29.9815 23.6727C30.3015 23.0061 30.6215 22.3394 30.9415 21.6727L29.1385 20.8073C28.8185 21.4739 28.4985 22.1406 28.1785 22.8073L29.9815 23.6727ZM29.7803 22.2057L35.5803 23.7657L36.0997 21.8343L30.2997 20.2743L29.7803 22.2057ZM34.9799 22.2898C34.0436 23.8682 33.213 25.3017 32.4884 26.5897L34.2316 27.5703C34.947 26.2983 35.7697 24.8785 36.7001 23.3102L34.9799 22.2898ZM32.4807 26.6037C31.7809 27.8957 31.1079 29.2012 30.4619 30.5201L32.2581 31.3999C32.8921 30.1055 33.5525 28.8243 34.2393 27.5563L32.4807 26.6037ZM30.4619 30.5201C29.8199 31.8309 29.0983 33.3276 28.2971 35.0101L30.1029 35.8699C30.9017 34.1924 31.6201 32.7025 32.2581 31.3999L30.4619 30.5201ZM28.2103 35.5832C28.5089 37.6465 28.9424 39.8256 29.5092 42.1198L31.4508 41.6402C30.8976 39.401 30.4777 37.2868 30.1897 35.2968L28.2103 35.5832ZM29.5092 42.1198C30.0694 44.3873 30.5896 46.4815 31.0699 48.4025L33.0101 47.9175C32.5304 45.9985 32.0106 43.9061 31.4508 41.6402L29.5092 42.1198ZM31.5928 47.2656C31.6226 47.2507 31.6453 47.2414 31.6524 47.2385C31.6618 47.2347 31.6676 47.2327 31.6679 47.2326C31.6682 47.2324 31.6613 47.2349 31.644 47.2405C31.6099 47.2514 31.5564 47.2677 31.48 47.29C31.3284 47.3342 31.1083 47.3957 30.8169 47.4752L31.3431 49.4048C31.6383 49.3243 31.8716 49.2591 32.04 49.21C32.1236 49.1856 32.1968 49.1636 32.256 49.1445C32.2854 49.1351 32.3926 49.1017 32.4872 49.0544L31.5928 47.2656ZM30.8584 47.4649C30.2407 47.6052 29.4302 47.8256 28.435 48.1215L29.005 50.0385C29.9831 49.7477 30.746 49.5414 31.3016 49.4151L30.8584 47.4649ZM28.4524 48.1165C27.487 48.3846 26.6003 48.6399 25.7927 48.8822L26.3673 50.7978C27.1597 50.5601 28.033 50.3087 28.9876 50.0435L28.4524 48.1165ZM25.8141 48.876C25.0305 49.0922 24.4039 49.2932 23.9661 49.4809L24.7539 51.3191C25.0628 51.1868 25.5828 51.0145 26.3459 50.804L25.8141 48.876ZM35.3253 50.04L34.3491 49.8231L34.0173 51.3162L35.5182 51.0212L35.3253 50.04ZM37.6053 39.48L36.627 39.273L36.6265 39.2751L37.6053 39.48ZM38.4853 35.04L37.5046 34.8439L37.5023 34.8567L38.4853 35.04ZM39.4453 30.2L38.4641 30.007L38.4641 30.007L39.4453 30.2ZM40.3253 25.6L41.3086 25.7821L41.3092 25.7789L40.3253 25.6ZM40.9653 21.76L40.678 20.8022L40.0681 20.9851L39.9759 21.6152L40.9653 21.76ZM44.4053 20.88L44.1972 19.9019L44.1929 19.9028L44.4053 20.88ZM51.5653 21.52L50.969 22.3227L50.9765 22.3283L50.9841 22.3337L51.5653 21.52ZM53.5653 24.24L52.6211 24.5694L52.6211 24.5694L53.5653 24.24ZM53.3253 32.32L52.398 31.9455L52.3943 31.9549L53.3253 32.32ZM51.1253 36L50.3647 35.3507L50.3601 35.3562L50.3556 35.3617L51.1253 36ZM47.9653 38.6L47.4947 37.7176L47.4865 37.7221L47.9653 38.6ZM43.8453 39.56V38.56H43.0533L42.8719 39.331L43.8453 39.56ZM42.7653 45.48L43.7459 45.6761L43.7509 45.6509L43.7547 45.6255L42.7653 45.48ZM42.4853 47.08L43.4742 47.2283L43.4742 47.2283L42.4853 47.08ZM42.2453 48.68L42.4382 49.6612L43.1297 49.5253L43.2342 48.8283L42.2453 48.68ZM44.6453 35.36L43.6636 35.1695L43.3611 36.7285L44.8977 36.3276L44.6453 35.36ZM46.4853 34.16L47.2073 34.8519L47.2143 34.8446L47.2212 34.8371L46.4853 34.16ZM48.0053 31.64L47.0752 31.2728L47.0752 31.2728L48.0053 31.64ZM47.9253 26.08L47.1604 26.7241L47.1701 26.7356L47.1801 26.7468L47.9253 26.08ZM46.4853 25.32V24.32H45.6382L45.4989 25.1556L46.4853 25.32ZM45.6053 30.32L44.6223 30.1367L44.6223 30.1367L45.6053 30.32ZM36.3015 50.2569C37.1023 46.6531 37.8632 43.1291 38.5841 39.6849L36.6265 39.2751C35.9074 42.7109 35.1483 46.2269 34.3491 49.8231L36.3015 50.2569ZM38.5837 39.687C38.8789 38.2915 39.1737 36.8035 39.4684 35.2233L37.5023 34.8567C37.2102 36.4231 36.9184 37.8952 36.627 39.273L38.5837 39.687ZM39.4659 35.2361C39.7861 33.6351 40.1063 32.0207 40.4265 30.393L38.4641 30.007C38.1443 31.6326 37.8245 33.2449 37.5047 34.8439L39.4659 35.2361ZM40.4265 30.393C40.7471 28.7632 41.0412 27.2262 41.3086 25.7821L39.342 25.4179C39.0761 26.8538 38.7835 28.3835 38.4641 30.007L40.4265 30.393ZM41.3092 25.7789C41.5773 24.3045 41.7926 23.0127 41.9548 21.9048L39.9759 21.6152C39.818 22.694 39.6067 23.9622 39.3414 25.4211L41.3092 25.7789ZM41.2527 22.7178C42.2917 22.4061 43.4132 22.119 44.6177 21.8572L44.1929 19.9028C42.9441 20.1743 41.7722 20.4739 40.678 20.8022L41.2527 22.7178ZM44.6134 21.8581C45.8174 21.6019 46.8657 21.48 47.7653 21.48V19.48C46.6916 19.48 45.4999 19.6247 44.1972 19.9019L44.6134 21.8581ZM47.7653 21.48C49.2298 21.48 50.2624 21.7978 50.969 22.3227L52.1616 20.7173C51.0016 19.8555 49.5009 19.48 47.7653 19.48V21.48ZM50.9841 22.3337C51.7391 22.873 52.2849 23.6056 52.6211 24.5694L54.5095 23.9106C54.0457 22.581 53.2582 21.5003 52.1466 20.7063L50.9841 22.3337ZM52.6211 24.5694C52.98 25.5983 53.1653 26.7388 53.1653 28H55.1653C55.1653 26.5412 54.9506 25.1751 54.5095 23.9106L52.6211 24.5694ZM53.1653 28C53.1653 29.3648 52.9101 30.6777 52.3981 31.9455L54.2526 32.6945C54.8605 31.189 55.1653 29.6219 55.1653 28H53.1653ZM52.3943 31.9549C51.9009 33.2131 51.2247 34.3434 50.3647 35.3507L51.8859 36.6493C52.8926 35.47 53.683 34.1469 54.2563 32.6851L52.3943 31.9549ZM50.3556 35.3617C49.5281 36.3595 48.575 37.1415 47.4947 37.7176L48.4359 39.4824C49.7556 38.7785 50.9092 37.8272 51.8951 36.6383L50.3556 35.3617ZM47.4865 37.7221C46.4533 38.2857 45.3905 38.56 44.2853 38.56V40.56C45.7401 40.56 47.1307 40.1943 48.4442 39.4779L47.4865 37.7221ZM44.2853 38.56H43.8453V40.56H44.2853V38.56ZM42.8719 39.331C42.6535 40.2591 42.4498 41.2649 42.2603 42.3476L44.2303 42.6924C44.4142 41.6417 44.6105 40.6742 44.8187 39.789L42.8719 39.331ZM42.2603 42.3476C42.0723 43.4217 41.9108 44.4174 41.776 45.3345L43.7547 45.6255C43.8865 44.7292 44.045 43.7517 44.2303 42.6924L42.2603 42.3476ZM41.7847 45.2839C41.6749 45.8329 41.5788 46.3822 41.4964 46.9317L43.4742 47.2283C43.5518 46.7111 43.6424 46.1937 43.7459 45.6761L41.7847 45.2839ZM41.4964 46.9317C41.4962 46.9327 41.4961 46.9337 41.4959 46.9348C41.4958 46.9358 41.4956 46.9369 41.4954 46.9379C41.4953 46.939 41.4951 46.94 41.495 46.941C41.4948 46.9421 41.4947 46.9431 41.4945 46.9442C41.4943 46.9452 41.4942 46.9462 41.494 46.9473C41.4939 46.9483 41.4937 46.9494 41.4936 46.9504C41.4934 46.9515 41.4933 46.9525 41.4931 46.9535C41.4929 46.9546 41.4928 46.9556 41.4926 46.9567C41.4925 46.9577 41.4923 46.9587 41.4922 46.9598C41.492 46.9608 41.4918 46.9619 41.4917 46.9629C41.4915 46.964 41.4914 46.965 41.4912 46.966C41.4911 46.9671 41.4909 46.9681 41.4908 46.9692C41.4906 46.9702 41.4904 46.9712 41.4903 46.9723C41.4901 46.9733 41.49 46.9744 41.4898 46.9754C41.4897 46.9765 41.4895 46.9775 41.4893 46.9785C41.4892 46.9796 41.489 46.9806 41.4889 46.9817C41.4887 46.9827 41.4886 46.9837 41.4884 46.9848C41.4883 46.9858 41.4881 46.9869 41.4879 46.9879C41.4878 46.989 41.4876 46.99 41.4875 46.991C41.4873 46.9921 41.4872 46.9931 41.487 46.9942C41.4868 46.9952 41.4867 46.9962 41.4865 46.9973C41.4864 46.9983 41.4862 46.9994 41.4861 47.0004C41.4859 47.0015 41.4858 47.0025 41.4856 47.0035C41.4854 47.0046 41.4853 47.0056 41.4851 47.0067C41.485 47.0077 41.4848 47.0087 41.4847 47.0098C41.4845 47.0108 41.4843 47.0119 41.4842 47.0129C41.484 47.014 41.4839 47.015 41.4837 47.016C41.4836 47.0171 41.4834 47.0181 41.4833 47.0192C41.4831 47.0202 41.4829 47.0212 41.4828 47.0223C41.4826 47.0233 41.4825 47.0244 41.4823 47.0254C41.4822 47.0265 41.482 47.0275 41.4818 47.0285C41.4817 47.0296 41.4815 47.0306 41.4814 47.0317C41.4812 47.0327 41.4811 47.0337 41.4809 47.0348C41.4808 47.0358 41.4806 47.0369 41.4804 47.0379C41.4803 47.039 41.4801 47.04 41.48 47.041C41.4798 47.0421 41.4797 47.0431 41.4795 47.0442C41.4793 47.0452 41.4792 47.0462 41.479 47.0473C41.4789 47.0483 41.4787 47.0494 41.4786 47.0504C41.4784 47.0515 41.4783 47.0525 41.4781 47.0535C41.4779 47.0546 41.4778 47.0556 41.4776 47.0567C41.4775 47.0577 41.4773 47.0587 41.4772 47.0598C41.477 47.0608 41.4768 47.0619 41.4767 47.0629C41.4765 47.064 41.4764 47.065 41.4762 47.066C41.4761 47.0671 41.4759 47.0681 41.4758 47.0692C41.4756 47.0702 41.4754 47.0712 41.4753 47.0723C41.4751 47.0733 41.475 47.0744 41.4748 47.0754C41.4747 47.0765 41.4745 47.0775 41.4743 47.0785C41.4742 47.0796 41.474 47.0806 41.4739 47.0817C41.4737 47.0827 41.4736 47.0837 41.4734 47.0848C41.4733 47.0858 41.4731 47.0869 41.4729 47.0879C41.4728 47.089 41.4726 47.09 41.4725 47.091C41.4723 47.0921 41.4722 47.0931 41.472 47.0942C41.4718 47.0952 41.4717 47.0962 41.4715 47.0973C41.4714 47.0983 41.4712 47.0994 41.4711 47.1004C41.4709 47.1015 41.4708 47.1025 41.4706 47.1035C41.4704 47.1046 41.4703 47.1056 41.4701 47.1067C41.47 47.1077 41.4698 47.1087 41.4697 47.1098C41.4695 47.1108 41.4693 47.1119 41.4692 47.1129C41.469 47.114 41.4689 47.115 41.4687 47.116C41.4686 47.1171 41.4684 47.1181 41.4683 47.1192C41.4681 47.1202 41.4679 47.1212 41.4678 47.1223C41.4676 47.1233 41.4675 47.1244 41.4673 47.1254C41.4672 47.1265 41.467 47.1275 41.4668 47.1285C41.4667 47.1296 41.4665 47.1306 41.4664 47.1317C41.4662 47.1327 41.4661 47.1337 41.4659 47.1348C41.4658 47.1358 41.4656 47.1369 41.4654 47.1379C41.4653 47.139 41.4651 47.14 41.465 47.141C41.4648 47.1421 41.4647 47.1431 41.4645 47.1442C41.4643 47.1452 41.4642 47.1462 41.464 47.1473C41.4639 47.1483 41.4637 47.1494 41.4636 47.1504C41.4634 47.1515 41.4633 47.1525 41.4631 47.1535C41.4629 47.1546 41.4628 47.1556 41.4626 47.1567C41.4625 47.1577 41.4623 47.1587 41.4622 47.1598C41.462 47.1608 41.4618 47.1619 41.4617 47.1629C41.4615 47.164 41.4614 47.165 41.4612 47.166C41.4611 47.1671 41.4609 47.1681 41.4608 47.1692C41.4606 47.1702 41.4604 47.1712 41.4603 47.1723C41.4601 47.1733 41.46 47.1744 41.4598 47.1754C41.4597 47.1765 41.4595 47.1775 41.4593 47.1785C41.4592 47.1796 41.459 47.1806 41.4589 47.1817C41.4587 47.1827 41.4586 47.1837 41.4584 47.1848C41.4583 47.1858 41.4581 47.1869 41.4579 47.1879C41.4578 47.189 41.4576 47.19 41.4575 47.191C41.4573 47.1921 41.4572 47.1931 41.457 47.1942C41.4568 47.1952 41.4567 47.1962 41.4565 47.1973C41.4564 47.1983 41.4562 47.1994 41.4561 47.2004C41.4559 47.2015 41.4558 47.2025 41.4556 47.2035C41.4554 47.2046 41.4553 47.2056 41.4551 47.2067C41.455 47.2077 41.4548 47.2087 41.4547 47.2098C41.4545 47.2108 41.4543 47.2119 41.4542 47.2129C41.454 47.214 41.4539 47.215 41.4537 47.216C41.4536 47.2171 41.4534 47.2181 41.4533 47.2192C41.4531 47.2202 41.4529 47.2212 41.4528 47.2223C41.4526 47.2233 41.4525 47.2244 41.4523 47.2254C41.4522 47.2265 41.452 47.2275 41.4518 47.2285C41.4517 47.2296 41.4515 47.2306 41.4514 47.2317C41.4512 47.2327 41.4511 47.2337 41.4509 47.2348C41.4508 47.2358 41.4506 47.2369 41.4504 47.2379C41.4503 47.239 41.4501 47.24 41.45 47.241C41.4498 47.2421 41.4497 47.2431 41.4495 47.2442C41.4493 47.2452 41.4492 47.2462 41.449 47.2473C41.4489 47.2483 41.4487 47.2494 41.4486 47.2504C41.4484 47.2515 41.4483 47.2525 41.4481 47.2535C41.4479 47.2546 41.4478 47.2556 41.4476 47.2567C41.4475 47.2577 41.4473 47.2587 41.4472 47.2598C41.447 47.2608 41.4468 47.2619 41.4467 47.2629C41.4465 47.264 41.4464 47.265 41.4462 47.266C41.4461 47.2671 41.4459 47.2681 41.4458 47.2692C41.4456 47.2702 41.4454 47.2712 41.4453 47.2723C41.4451 47.2733 41.445 47.2744 41.4448 47.2754C41.4447 47.2765 41.4445 47.2775 41.4443 47.2785C41.4442 47.2796 41.444 47.2806 41.4439 47.2817C41.4437 47.2827 41.4436 47.2837 41.4434 47.2848C41.4433 47.2858 41.4431 47.2869 41.4429 47.2879C41.4428 47.289 41.4426 47.29 41.4425 47.291C41.4423 47.2921 41.4422 47.2931 41.442 47.2942C41.4418 47.2952 41.4417 47.2962 41.4415 47.2973C41.4414 47.2983 41.4412 47.2994 41.4411 47.3004C41.4409 47.3015 41.4408 47.3025 41.4406 47.3035C41.4404 47.3046 41.4403 47.3056 41.4401 47.3067C41.44 47.3077 41.4398 47.3087 41.4397 47.3098C41.4395 47.3108 41.4393 47.3119 41.4392 47.3129C41.439 47.314 41.4389 47.315 41.4387 47.316C41.4386 47.3171 41.4384 47.3181 41.4383 47.3192C41.4381 47.3202 41.4379 47.3212 41.4378 47.3223C41.4376 47.3233 41.4375 47.3244 41.4373 47.3254C41.4372 47.3265 41.437 47.3275 41.4368 47.3285C41.4367 47.3296 41.4365 47.3306 41.4364 47.3317C41.4362 47.3327 41.4361 47.3337 41.4359 47.3348C41.4358 47.3358 41.4356 47.3369 41.4354 47.3379C41.4353 47.339 41.4351 47.34 41.435 47.341C41.4348 47.3421 41.4347 47.3431 41.4345 47.3442C41.4343 47.3452 41.4342 47.3462 41.434 47.3473C41.4339 47.3483 41.4337 47.3494 41.4336 47.3504C41.4334 47.3515 41.4333 47.3525 41.4331 47.3535C41.4329 47.3546 41.4328 47.3556 41.4326 47.3567C41.4325 47.3577 41.4323 47.3587 41.4322 47.3598C41.432 47.3608 41.4318 47.3619 41.4317 47.3629C41.4315 47.364 41.4314 47.365 41.4312 47.366C41.4311 47.3671 41.4309 47.3681 41.4308 47.3692C41.4306 47.3702 41.4304 47.3712 41.4303 47.3723C41.4301 47.3733 41.43 47.3744 41.4298 47.3754C41.4297 47.3765 41.4295 47.3775 41.4293 47.3785C41.4292 47.3796 41.429 47.3806 41.4289 47.3817C41.4287 47.3827 41.4286 47.3837 41.4284 47.3848C41.4283 47.3858 41.4281 47.3869 41.4279 47.3879C41.4278 47.389 41.4276 47.39 41.4275 47.391C41.4273 47.3921 41.4272 47.3931 41.427 47.3942C41.4268 47.3952 41.4267 47.3962 41.4265 47.3973C41.4264 47.3983 41.4262 47.3994 41.4261 47.4004C41.4259 47.4015 41.4258 47.4025 41.4256 47.4035C41.4254 47.4046 41.4253 47.4056 41.4251 47.4067C41.425 47.4077 41.4248 47.4087 41.4247 47.4098C41.4245 47.4108 41.4243 47.4119 41.4242 47.4129C41.424 47.414 41.4239 47.415 41.4237 47.416C41.4236 47.4171 41.4234 47.4181 41.4233 47.4192C41.4231 47.4202 41.4229 47.4212 41.4228 47.4223C41.4226 47.4233 41.4225 47.4244 41.4223 47.4254C41.4222 47.4265 41.422 47.4275 41.4218 47.4285C41.4217 47.4296 41.4215 47.4306 41.4214 47.4317C41.4212 47.4327 41.4211 47.4337 41.4209 47.4348C41.4208 47.4358 41.4206 47.4369 41.4204 47.4379C41.4203 47.439 41.4201 47.44 41.42 47.441C41.4198 47.4421 41.4197 47.4431 41.4195 47.4442C41.4193 47.4452 41.4192 47.4462 41.419 47.4473C41.4189 47.4483 41.4187 47.4494 41.4186 47.4504C41.4184 47.4515 41.4183 47.4525 41.4181 47.4535C41.4179 47.4546 41.4178 47.4556 41.4176 47.4567C41.4175 47.4577 41.4173 47.4587 41.4172 47.4598C41.417 47.4608 41.4168 47.4619 41.4167 47.4629C41.4165 47.464 41.4164 47.465 41.4162 47.466C41.4161 47.4671 41.4159 47.4681 41.4158 47.4692C41.4156 47.4702 41.4154 47.4712 41.4153 47.4723C41.4151 47.4733 41.415 47.4744 41.4148 47.4754C41.4147 47.4765 41.4145 47.4775 41.4143 47.4785C41.4142 47.4796 41.414 47.4806 41.4139 47.4817C41.4137 47.4827 41.4136 47.4837 41.4134 47.4848C41.4133 47.4858 41.4131 47.4869 41.4129 47.4879C41.4128 47.489 41.4126 47.49 41.4125 47.491C41.4123 47.4921 41.4122 47.4931 41.412 47.4942C41.4118 47.4952 41.4117 47.4962 41.4115 47.4973C41.4114 47.4983 41.4112 47.4994 41.4111 47.5004C41.4109 47.5015 41.4108 47.5025 41.4106 47.5035C41.4104 47.5046 41.4103 47.5056 41.4101 47.5067C41.41 47.5077 41.4098 47.5087 41.4097 47.5098C41.4095 47.5108 41.4093 47.5119 41.4092 47.5129C41.409 47.514 41.4089 47.515 41.4087 47.516C41.4086 47.5171 41.4084 47.5181 41.4083 47.5192C41.4081 47.5202 41.4079 47.5212 41.4078 47.5223C41.4076 47.5233 41.4075 47.5244 41.4073 47.5254C41.4072 47.5265 41.407 47.5275 41.4068 47.5285C41.4067 47.5296 41.4065 47.5306 41.4064 47.5317C41.4062 47.5327 41.4061 47.5337 41.4059 47.5348C41.4058 47.5358 41.4056 47.5369 41.4054 47.5379C41.4053 47.539 41.4051 47.54 41.405 47.541C41.4048 47.5421 41.4047 47.5431 41.4045 47.5442C41.4043 47.5452 41.4042 47.5462 41.404 47.5473C41.4039 47.5483 41.4037 47.5494 41.4036 47.5504C41.4034 47.5515 41.4033 47.5525 41.4031 47.5535C41.4029 47.5546 41.4028 47.5556 41.4026 47.5567C41.4025 47.5577 41.4023 47.5587 41.4022 47.5598C41.402 47.5608 41.4018 47.5619 41.4017 47.5629C41.4015 47.564 41.4014 47.565 41.4012 47.566C41.4011 47.5671 41.4009 47.5681 41.4008 47.5692C41.4006 47.5702 41.4004 47.5712 41.4003 47.5723C41.4001 47.5733 41.4 47.5744 41.3998 47.5754C41.3997 47.5765 41.3995 47.5775 41.3993 47.5785C41.3992 47.5796 41.399 47.5806 41.3989 47.5817C41.3987 47.5827 41.3986 47.5837 41.3984 47.5848C41.3983 47.5858 41.3981 47.5869 41.3979 47.5879C41.3978 47.589 41.3976 47.59 41.3975 47.591C41.3973 47.5921 41.3972 47.5931 41.397 47.5942C41.3968 47.5952 41.3967 47.5962 41.3965 47.5973C41.3964 47.5983 41.3962 47.5994 41.3961 47.6004C41.3959 47.6015 41.3958 47.6025 41.3956 47.6035C41.3954 47.6046 41.3953 47.6056 41.3951 47.6067C41.395 47.6077 41.3948 47.6087 41.3947 47.6098C41.3945 47.6108 41.3943 47.6119 41.3942 47.6129C41.394 47.614 41.3939 47.615 41.3937 47.616C41.3936 47.6171 41.3934 47.6181 41.3933 47.6192C41.3931 47.6202 41.3929 47.6212 41.3928 47.6223C41.3926 47.6233 41.3925 47.6244 41.3923 47.6254C41.3922 47.6265 41.392 47.6275 41.3918 47.6285C41.3917 47.6296 41.3915 47.6306 41.3914 47.6317C41.3912 47.6327 41.3911 47.6337 41.3909 47.6348C41.3908 47.6358 41.3906 47.6369 41.3904 47.6379C41.3903 47.639 41.3901 47.64 41.39 47.641C41.3898 47.6421 41.3897 47.6431 41.3895 47.6442C41.3893 47.6452 41.3892 47.6462 41.389 47.6473C41.3889 47.6483 41.3887 47.6494 41.3886 47.6504C41.3884 47.6515 41.3883 47.6525 41.3881 47.6535C41.3879 47.6546 41.3878 47.6556 41.3876 47.6567C41.3875 47.6577 41.3873 47.6587 41.3872 47.6598C41.387 47.6608 41.3868 47.6619 41.3867 47.6629C41.3865 47.664 41.3864 47.665 41.3862 47.666C41.3861 47.6671 41.3859 47.6681 41.3858 47.6692C41.3856 47.6702 41.3854 47.6712 41.3853 47.6723C41.3851 47.6733 41.385 47.6744 41.3848 47.6754C41.3847 47.6765 41.3845 47.6775 41.3843 47.6785C41.3842 47.6796 41.384 47.6806 41.3839 47.6817C41.3837 47.6827 41.3836 47.6837 41.3834 47.6848C41.3833 47.6858 41.3831 47.6869 41.3829 47.6879C41.3828 47.689 41.3826 47.69 41.3825 47.691C41.3823 47.6921 41.3822 47.6931 41.382 47.6942C41.3818 47.6952 41.3817 47.6962 41.3815 47.6973C41.3814 47.6983 41.3812 47.6994 41.3811 47.7004C41.3809 47.7015 41.3808 47.7025 41.3806 47.7035C41.3804 47.7046 41.3803 47.7056 41.3801 47.7067C41.38 47.7077 41.3798 47.7087 41.3797 47.7098C41.3795 47.7108 41.3793 47.7119 41.3792 47.7129C41.379 47.714 41.3789 47.715 41.3787 47.716C41.3786 47.7171 41.3784 47.7181 41.3783 47.7192C41.3781 47.7202 41.3779 47.7212 41.3778 47.7223C41.3776 47.7233 41.3775 47.7244 41.3773 47.7254C41.3772 47.7265 41.377 47.7275 41.3768 47.7285C41.3767 47.7296 41.3765 47.7306 41.3764 47.7317C41.3762 47.7327 41.3761 47.7337 41.3759 47.7348C41.3758 47.7358 41.3756 47.7369 41.3754 47.7379C41.3753 47.739 41.3751 47.74 41.375 47.741C41.3748 47.7421 41.3747 47.7431 41.3745 47.7442C41.3743 47.7452 41.3742 47.7462 41.374 47.7473C41.3739 47.7483 41.3737 47.7494 41.3736 47.7504C41.3734 47.7515 41.3733 47.7525 41.3731 47.7535C41.3729 47.7546 41.3728 47.7556 41.3726 47.7567C41.3725 47.7577 41.3723 47.7587 41.3722 47.7598C41.372 47.7608 41.3718 47.7619 41.3717 47.7629C41.3715 47.764 41.3714 47.765 41.3712 47.766C41.3711 47.7671 41.3709 47.7681 41.3708 47.7692C41.3706 47.7702 41.3704 47.7712 41.3703 47.7723C41.3701 47.7733 41.37 47.7744 41.3698 47.7754C41.3697 47.7765 41.3695 47.7775 41.3693 47.7785C41.3692 47.7796 41.369 47.7806 41.3689 47.7817C41.3687 47.7827 41.3686 47.7837 41.3684 47.7848C41.3683 47.7858 41.3681 47.7869 41.3679 47.7879C41.3678 47.789 41.3676 47.79 41.3675 47.791C41.3673 47.7921 41.3672 47.7931 41.367 47.7942C41.3668 47.7952 41.3667 47.7962 41.3665 47.7973C41.3664 47.7983 41.3662 47.7994 41.3661 47.8004C41.3659 47.8015 41.3658 47.8025 41.3656 47.8035C41.3654 47.8046 41.3653 47.8056 41.3651 47.8067C41.365 47.8077 41.3648 47.8087 41.3647 47.8098C41.3645 47.8108 41.3643 47.8119 41.3642 47.8129C41.364 47.814 41.3639 47.815 41.3637 47.816C41.3636 47.8171 41.3634 47.8181 41.3633 47.8192C41.3631 47.8202 41.3629 47.8212 41.3628 47.8223C41.3626 47.8233 41.3625 47.8244 41.3623 47.8254C41.3622 47.8265 41.362 47.8275 41.3618 47.8285C41.3617 47.8296 41.3615 47.8306 41.3614 47.8317C41.3612 47.8327 41.3611 47.8337 41.3609 47.8348C41.3608 47.8358 41.3606 47.8369 41.3604 47.8379C41.3603 47.839 41.3601 47.84 41.36 47.841C41.3598 47.8421 41.3597 47.8431 41.3595 47.8442C41.3593 47.8452 41.3592 47.8462 41.359 47.8473C41.3589 47.8483 41.3587 47.8494 41.3586 47.8504C41.3584 47.8515 41.3583 47.8525 41.3581 47.8535C41.3579 47.8546 41.3578 47.8556 41.3576 47.8567C41.3575 47.8577 41.3573 47.8587 41.3572 47.8598C41.357 47.8608 41.3568 47.8619 41.3567 47.8629C41.3565 47.864 41.3564 47.865 41.3562 47.866C41.3561 47.8671 41.3559 47.8681 41.3558 47.8692C41.3556 47.8702 41.3554 47.8712 41.3553 47.8723C41.3551 47.8733 41.355 47.8744 41.3548 47.8754C41.3547 47.8765 41.3545 47.8775 41.3543 47.8785C41.3542 47.8796 41.354 47.8806 41.3539 47.8817C41.3537 47.8827 41.3536 47.8837 41.3534 47.8848C41.3533 47.8858 41.3531 47.8869 41.3529 47.8879C41.3528 47.889 41.3526 47.89 41.3525 47.891C41.3523 47.8921 41.3522 47.8931 41.352 47.8942C41.3518 47.8952 41.3517 47.8962 41.3515 47.8973C41.3514 47.8983 41.3512 47.8994 41.3511 47.9004C41.3509 47.9015 41.3508 47.9025 41.3506 47.9035C41.3504 47.9046 41.3503 47.9056 41.3501 47.9067C41.35 47.9077 41.3498 47.9087 41.3497 47.9098C41.3495 47.9108 41.3493 47.9119 41.3492 47.9129C41.349 47.914 41.3489 47.915 41.3487 47.916C41.3486 47.9171 41.3484 47.9181 41.3483 47.9192C41.3481 47.9202 41.3479 47.9212 41.3478 47.9223C41.3476 47.9233 41.3475 47.9244 41.3473 47.9254C41.3472 47.9265 41.347 47.9275 41.3468 47.9285C41.3467 47.9296 41.3465 47.9306 41.3464 47.9317C41.3462 47.9327 41.3461 47.9337 41.3459 47.9348C41.3458 47.9358 41.3456 47.9369 41.3454 47.9379C41.3453 47.939 41.3451 47.94 41.345 47.941C41.3448 47.9421 41.3447 47.9431 41.3445 47.9442C41.3443 47.9452 41.3442 47.9462 41.344 47.9473C41.3439 47.9483 41.3437 47.9494 41.3436 47.9504C41.3434 47.9515 41.3433 47.9525 41.3431 47.9535C41.3429 47.9546 41.3428 47.9556 41.3426 47.9567C41.3425 47.9577 41.3423 47.9587 41.3422 47.9598C41.342 47.9608 41.3418 47.9619 41.3417 47.9629C41.3415 47.964 41.3414 47.965 41.3412 47.966C41.3411 47.9671 41.3409 47.9681 41.3408 47.9692C41.3406 47.9702 41.3404 47.9712 41.3403 47.9723C41.3401 47.9733 41.34 47.9744 41.3398 47.9754C41.3397 47.9765 41.3395 47.9775 41.3393 47.9785C41.3392 47.9796 41.339 47.9806 41.3389 47.9817C41.3387 47.9827 41.3386 47.9837 41.3384 47.9848C41.3383 47.9858 41.3381 47.9869 41.3379 47.9879C41.3378 47.989 41.3376 47.99 41.3375 47.991C41.3373 47.9921 41.3372 47.9931 41.337 47.9942C41.3368 47.9952 41.3367 47.9962 41.3365 47.9973C41.3364 47.9983 41.3362 47.9994 41.3361 48.0004C41.3359 48.0015 41.3358 48.0025 41.3356 48.0035C41.3354 48.0046 41.3353 48.0056 41.3351 48.0067C41.335 48.0077 41.3348 48.0087 41.3347 48.0098C41.3345 48.0108 41.3343 48.0119 41.3342 48.0129C41.334 48.014 41.3339 48.015 41.3337 48.016C41.3336 48.0171 41.3334 48.0181 41.3333 48.0192C41.3331 48.0202 41.3329 48.0212 41.3328 48.0223C41.3326 48.0233 41.3325 48.0244 41.3323 48.0254C41.3322 48.0265 41.332 48.0275 41.3318 48.0285C41.3317 48.0296 41.3315 48.0306 41.3314 48.0317C41.3312 48.0327 41.3311 48.0337 41.3309 48.0348C41.3308 48.0358 41.3306 48.0369 41.3304 48.0379C41.3303 48.039 41.3301 48.04 41.33 48.041C41.3298 48.0421 41.3297 48.0431 41.3295 48.0442C41.3293 48.0452 41.3292 48.0462 41.329 48.0473C41.3289 48.0483 41.3287 48.0494 41.3286 48.0504C41.3284 48.0515 41.3283 48.0525 41.3281 48.0535C41.3279 48.0546 41.3278 48.0556 41.3276 48.0567C41.3275 48.0577 41.3273 48.0587 41.3272 48.0598C41.327 48.0608 41.3268 48.0619 41.3267 48.0629C41.3265 48.064 41.3264 48.065 41.3262 48.066C41.3261 48.0671 41.3259 48.0681 41.3258 48.0692C41.3256 48.0702 41.3254 48.0712 41.3253 48.0723C41.3251 48.0733 41.325 48.0744 41.3248 48.0754C41.3247 48.0765 41.3245 48.0775 41.3243 48.0785C41.3242 48.0796 41.324 48.0806 41.3239 48.0817C41.3237 48.0827 41.3236 48.0837 41.3234 48.0848C41.3233 48.0858 41.3231 48.0869 41.3229 48.0879C41.3228 48.089 41.3226 48.09 41.3225 48.091C41.3223 48.0921 41.3222 48.0931 41.322 48.0942C41.3218 48.0952 41.3217 48.0962 41.3215 48.0973C41.3214 48.0983 41.3212 48.0994 41.3211 48.1004C41.3209 48.1015 41.3208 48.1025 41.3206 48.1035C41.3204 48.1046 41.3203 48.1056 41.3201 48.1067C41.32 48.1077 41.3198 48.1087 41.3197 48.1098C41.3195 48.1108 41.3193 48.1119 41.3192 48.1129C41.319 48.114 41.3189 48.115 41.3187 48.116C41.3186 48.1171 41.3184 48.1181 41.3183 48.1192C41.3181 48.1202 41.3179 48.1212 41.3178 48.1223C41.3176 48.1233 41.3175 48.1244 41.3173 48.1254C41.3172 48.1265 41.317 48.1275 41.3168 48.1285C41.3167 48.1296 41.3165 48.1306 41.3164 48.1317C41.3162 48.1327 41.3161 48.1337 41.3159 48.1348C41.3158 48.1358 41.3156 48.1369 41.3154 48.1379C41.3153 48.139 41.3151 48.14 41.315 48.141C41.3148 48.1421 41.3147 48.1431 41.3145 48.1442C41.3143 48.1452 41.3142 48.1462 41.314 48.1473C41.3139 48.1483 41.3137 48.1494 41.3136 48.1504C41.3134 48.1515 41.3133 48.1525 41.3131 48.1535C41.3129 48.1546 41.3128 48.1556 41.3126 48.1567C41.3125 48.1577 41.3123 48.1587 41.3122 48.1598C41.312 48.1608 41.3118 48.1619 41.3117 48.1629C41.3115 48.164 41.3114 48.165 41.3112 48.166C41.3111 48.1671 41.3109 48.1681 41.3108 48.1692C41.3106 48.1702 41.3104 48.1712 41.3103 48.1723C41.3101 48.1733 41.31 48.1744 41.3098 48.1754C41.3097 48.1765 41.3095 48.1775 41.3093 48.1785C41.3092 48.1796 41.309 48.1806 41.3089 48.1817C41.3087 48.1827 41.3086 48.1837 41.3084 48.1848C41.3083 48.1858 41.3081 48.1869 41.3079 48.1879C41.3078 48.189 41.3076 48.19 41.3075 48.191C41.3073 48.1921 41.3072 48.1931 41.307 48.1942C41.3068 48.1952 41.3067 48.1962 41.3065 48.1973C41.3064 48.1983 41.3062 48.1994 41.3061 48.2004C41.3059 48.2015 41.3058 48.2025 41.3056 48.2035C41.3054 48.2046 41.3053 48.2056 41.3051 48.2067C41.305 48.2077 41.3048 48.2087 41.3047 48.2098C41.3045 48.2108 41.3043 48.2119 41.3042 48.2129C41.304 48.214 41.3039 48.215 41.3037 48.216C41.3036 48.2171 41.3034 48.2181 41.3033 48.2192C41.3031 48.2202 41.3029 48.2212 41.3028 48.2223C41.3026 48.2233 41.3025 48.2244 41.3023 48.2254C41.3022 48.2265 41.302 48.2275 41.3018 48.2285C41.3017 48.2296 41.3015 48.2306 41.3014 48.2317C41.3012 48.2327 41.3011 48.2337 41.3009 48.2348C41.3008 48.2358 41.3006 48.2369 41.3004 48.2379C41.3003 48.239 41.3001 48.24 41.3 48.241C41.2998 48.2421 41.2997 48.2431 41.2995 48.2442C41.2993 48.2452 41.2992 48.2462 41.299 48.2473C41.2989 48.2483 41.2987 48.2494 41.2986 48.2504C41.2984 48.2515 41.2983 48.2525 41.2981 48.2535C41.2979 48.2546 41.2978 48.2556 41.2976 48.2567C41.2975 48.2577 41.2973 48.2587 41.2972 48.2598C41.297 48.2608 41.2968 48.2619 41.2967 48.2629C41.2965 48.264 41.2964 48.265 41.2962 48.266C41.2961 48.2671 41.2959 48.2681 41.2958 48.2692C41.2956 48.2702 41.2954 48.2712 41.2953 48.2723C41.2951 48.2733 41.295 48.2744 41.2948 48.2754C41.2947 48.2765 41.2945 48.2775 41.2943 48.2785C41.2942 48.2796 41.294 48.2806 41.2939 48.2817C41.2937 48.2827 41.2936 48.2837 41.2934 48.2848C41.2933 48.2858 41.2931 48.2869 41.2929 48.2879C41.2928 48.289 41.2926 48.29 41.2925 48.291C41.2923 48.2921 41.2922 48.2931 41.292 48.2942C41.2918 48.2952 41.2917 48.2962 41.2915 48.2973C41.2914 48.2983 41.2912 48.2994 41.2911 48.3004C41.2909 48.3015 41.2908 48.3025 41.2906 48.3035C41.2904 48.3046 41.2903 48.3056 41.2901 48.3067C41.29 48.3077 41.2898 48.3087 41.2897 48.3098C41.2895 48.3108 41.2893 48.3119 41.2892 48.3129C41.289 48.314 41.2889 48.315 41.2887 48.316C41.2886 48.3171 41.2884 48.3181 41.2883 48.3192C41.2881 48.3202 41.2879 48.3212 41.2878 48.3223C41.2876 48.3233 41.2875 48.3244 41.2873 48.3254C41.2872 48.3265 41.287 48.3275 41.2868 48.3285C41.2867 48.3296 41.2865 48.3306 41.2864 48.3317C41.2862 48.3327 41.2861 48.3337 41.2859 48.3348C41.2858 48.3358 41.2856 48.3369 41.2854 48.3379C41.2853 48.339 41.2851 48.34 41.285 48.341C41.2848 48.3421 41.2847 48.3431 41.2845 48.3442C41.2843 48.3452 41.2842 48.3462 41.284 48.3473C41.2839 48.3483 41.2837 48.3494 41.2836 48.3504C41.2834 48.3515 41.2833 48.3525 41.2831 48.3535C41.2829 48.3546 41.2828 48.3556 41.2826 48.3567C41.2825 48.3577 41.2823 48.3587 41.2822 48.3598C41.282 48.3608 41.2818 48.3619 41.2817 48.3629C41.2815 48.364 41.2814 48.365 41.2812 48.366C41.2811 48.3671 41.2809 48.3681 41.2808 48.3692C41.2806 48.3702 41.2804 48.3712 41.2803 48.3723C41.2801 48.3733 41.28 48.3744 41.2798 48.3754C41.2797 48.3765 41.2795 48.3775 41.2793 48.3785C41.2792 48.3796 41.279 48.3806 41.2789 48.3817C41.2787 48.3827 41.2786 48.3837 41.2784 48.3848C41.2783 48.3858 41.2781 48.3869 41.2779 48.3879C41.2778 48.389 41.2776 48.39 41.2775 48.391C41.2773 48.3921 41.2772 48.3931 41.277 48.3942C41.2768 48.3952 41.2767 48.3962 41.2765 48.3973C41.2764 48.3983 41.2762 48.3994 41.2761 48.4004C41.2759 48.4015 41.2758 48.4025 41.2756 48.4035C41.2754 48.4046 41.2753 48.4056 41.2751 48.4067C41.275 48.4077 41.2748 48.4087 41.2747 48.4098C41.2745 48.4108 41.2743 48.4119 41.2742 48.4129C41.274 48.414 41.2739 48.415 41.2737 48.416C41.2736 48.4171 41.2734 48.4181 41.2733 48.4192C41.2731 48.4202 41.2729 48.4212 41.2728 48.4223C41.2726 48.4233 41.2725 48.4244 41.2723 48.4254C41.2722 48.4265 41.272 48.4275 41.2718 48.4285C41.2717 48.4296 41.2715 48.4306 41.2714 48.4317C41.2712 48.4327 41.2711 48.4337 41.2709 48.4348C41.2708 48.4358 41.2706 48.4369 41.2704 48.4379C41.2703 48.439 41.2701 48.44 41.27 48.441C41.2698 48.4421 41.2697 48.4431 41.2695 48.4442C41.2693 48.4452 41.2692 48.4462 41.269 48.4473C41.2689 48.4483 41.2687 48.4494 41.2686 48.4504C41.2684 48.4515 41.2683 48.4525 41.2681 48.4535C41.2679 48.4546 41.2678 48.4556 41.2676 48.4567C41.2675 48.4577 41.2673 48.4587 41.2672 48.4598C41.267 48.4608 41.2668 48.4619 41.2667 48.4629C41.2665 48.464 41.2664 48.465 41.2662 48.466C41.2661 48.4671 41.2659 48.4681 41.2658 48.4692C41.2656 48.4702 41.2654 48.4712 41.2653 48.4723C41.2651 48.4733 41.265 48.4744 41.2648 48.4754C41.2647 48.4765 41.2645 48.4775 41.2643 48.4785C41.2642 48.4796 41.264 48.4806 41.2639 48.4817C41.2637 48.4827 41.2636 48.4837 41.2634 48.4848C41.2633 48.4858 41.2631 48.4869 41.2629 48.4879C41.2628 48.489 41.2626 48.49 41.2625 48.491C41.2623 48.4921 41.2622 48.4931 41.262 48.4942C41.2618 48.4952 41.2617 48.4962 41.2615 48.4973C41.2614 48.4983 41.2612 48.4994 41.2611 48.5004C41.2609 48.5015 41.2608 48.5025 41.2606 48.5035C41.2604 48.5046 41.2603 48.5056 41.2601 48.5067C41.26 48.5077 41.2598 48.5087 41.2597 48.5098C41.2595 48.5108 41.2593 48.5119 41.2592 48.5129C41.259 48.514 41.2589 48.515 41.2587 48.516C41.2586 48.5171 41.2584 48.5181 41.2583 48.5192C41.2581 48.5202 41.2579 48.5212 41.2578 48.5223C41.2576 48.5233 41.2575 48.5244 41.2573 48.5254C41.2572 48.5265 41.257 48.5275 41.2568 48.5285C41.2567 48.5296 41.2565 48.5306 41.2564 48.5317L43.2342 48.8283C43.2344 48.8273 43.2346 48.8263 43.2347 48.8252C43.2349 48.8242 43.235 48.8231 43.2352 48.8221C43.2353 48.821 43.2355 48.82 43.2357 48.819C43.2358 48.8179 43.236 48.8169 43.2361 48.8158C43.2363 48.8148 43.2364 48.8138 43.2366 48.8127C43.2367 48.8117 43.2369 48.8106 43.2371 48.8096C43.2372 48.8085 43.2374 48.8075 43.2375 48.8065C43.2377 48.8054 43.2378 48.8044 43.238 48.8033C43.2382 48.8023 43.2383 48.8013 43.2385 48.8002C43.2386 48.7992 43.2388 48.7981 43.2389 48.7971C43.2391 48.796 43.2392 48.795 43.2394 48.794C43.2396 48.7929 43.2397 48.7919 43.2399 48.7908C43.24 48.7898 43.2402 48.7888 43.2403 48.7877C43.2405 48.7867 43.2407 48.7856 43.2408 48.7846C43.241 48.7835 43.2411 48.7825 43.2413 48.7815C43.2414 48.7804 43.2416 48.7794 43.2417 48.7783C43.2419 48.7773 43.2421 48.7763 43.2422 48.7752C43.2424 48.7742 43.2425 48.7731 43.2427 48.7721C43.2428 48.771 43.243 48.77 43.2432 48.769C43.2433 48.7679 43.2435 48.7669 43.2436 48.7658C43.2438 48.7648 43.2439 48.7638 43.2441 48.7627C43.2442 48.7617 43.2444 48.7606 43.2446 48.7596C43.2447 48.7585 43.2449 48.7575 43.245 48.7565C43.2452 48.7554 43.2453 48.7544 43.2455 48.7533C43.2457 48.7523 43.2458 48.7513 43.246 48.7502C43.2461 48.7492 43.2463 48.7481 43.2464 48.7471C43.2466 48.746 43.2467 48.745 43.2469 48.744C43.2471 48.7429 43.2472 48.7419 43.2474 48.7408C43.2475 48.7398 43.2477 48.7388 43.2478 48.7377C43.248 48.7367 43.2482 48.7356 43.2483 48.7346C43.2485 48.7335 43.2486 48.7325 43.2488 48.7315C43.2489 48.7304 43.2491 48.7294 43.2492 48.7283C43.2494 48.7273 43.2496 48.7263 43.2497 48.7252C43.2499 48.7242 43.25 48.7231 43.2502 48.7221C43.2503 48.721 43.2505 48.72 43.2507 48.719C43.2508 48.7179 43.251 48.7169 43.2511 48.7158C43.2513 48.7148 43.2514 48.7138 43.2516 48.7127C43.2517 48.7117 43.2519 48.7106 43.2521 48.7096C43.2522 48.7085 43.2524 48.7075 43.2525 48.7065C43.2527 48.7054 43.2528 48.7044 43.253 48.7033C43.2532 48.7023 43.2533 48.7013 43.2535 48.7002C43.2536 48.6992 43.2538 48.6981 43.2539 48.6971C43.2541 48.696 43.2542 48.695 43.2544 48.694C43.2546 48.6929 43.2547 48.6919 43.2549 48.6908C43.255 48.6898 43.2552 48.6888 43.2553 48.6877C43.2555 48.6867 43.2557 48.6856 43.2558 48.6846C43.256 48.6835 43.2561 48.6825 43.2563 48.6815C43.2564 48.6804 43.2566 48.6794 43.2567 48.6783C43.2569 48.6773 43.2571 48.6763 43.2572 48.6752C43.2574 48.6742 43.2575 48.6731 43.2577 48.6721C43.2578 48.671 43.258 48.67 43.2582 48.669C43.2583 48.6679 43.2585 48.6669 43.2586 48.6658C43.2588 48.6648 43.2589 48.6638 43.2591 48.6627C43.2592 48.6617 43.2594 48.6606 43.2596 48.6596C43.2597 48.6585 43.2599 48.6575 43.26 48.6565C43.2602 48.6554 43.2603 48.6544 43.2605 48.6533C43.2607 48.6523 43.2608 48.6513 43.261 48.6502C43.2611 48.6492 43.2613 48.6481 43.2614 48.6471C43.2616 48.646 43.2617 48.645 43.2619 48.644C43.2621 48.6429 43.2622 48.6419 43.2624 48.6408C43.2625 48.6398 43.2627 48.6388 43.2628 48.6377C43.263 48.6367 43.2632 48.6356 43.2633 48.6346C43.2635 48.6335 43.2636 48.6325 43.2638 48.6315C43.2639 48.6304 43.2641 48.6294 43.2642 48.6283C43.2644 48.6273 43.2646 48.6263 43.2647 48.6252C43.2649 48.6242 43.265 48.6231 43.2652 48.6221C43.2653 48.621 43.2655 48.62 43.2657 48.619C43.2658 48.6179 43.266 48.6169 43.2661 48.6158C43.2663 48.6148 43.2664 48.6138 43.2666 48.6127C43.2667 48.6117 43.2669 48.6106 43.2671 48.6096C43.2672 48.6085 43.2674 48.6075 43.2675 48.6065C43.2677 48.6054 43.2678 48.6044 43.268 48.6033C43.2682 48.6023 43.2683 48.6013 43.2685 48.6002C43.2686 48.5992 43.2688 48.5981 43.2689 48.5971C43.2691 48.596 43.2692 48.595 43.2694 48.594C43.2696 48.5929 43.2697 48.5919 43.2699 48.5908C43.27 48.5898 43.2702 48.5888 43.2703 48.5877C43.2705 48.5867 43.2707 48.5856 43.2708 48.5846C43.271 48.5835 43.2711 48.5825 43.2713 48.5815C43.2714 48.5804 43.2716 48.5794 43.2717 48.5783C43.2719 48.5773 43.2721 48.5763 43.2722 48.5752C43.2724 48.5742 43.2725 48.5731 43.2727 48.5721C43.2728 48.571 43.273 48.57 43.2732 48.569C43.2733 48.5679 43.2735 48.5669 43.2736 48.5658C43.2738 48.5648 43.2739 48.5638 43.2741 48.5627C43.2742 48.5617 43.2744 48.5606 43.2746 48.5596C43.2747 48.5585 43.2749 48.5575 43.275 48.5565C43.2752 48.5554 43.2753 48.5544 43.2755 48.5533C43.2757 48.5523 43.2758 48.5513 43.276 48.5502C43.2761 48.5492 43.2763 48.5481 43.2764 48.5471C43.2766 48.546 43.2767 48.545 43.2769 48.544C43.2771 48.5429 43.2772 48.5419 43.2774 48.5408C43.2775 48.5398 43.2777 48.5388 43.2778 48.5377C43.278 48.5367 43.2782 48.5356 43.2783 48.5346C43.2785 48.5335 43.2786 48.5325 43.2788 48.5315C43.2789 48.5304 43.2791 48.5294 43.2792 48.5283C43.2794 48.5273 43.2796 48.5263 43.2797 48.5252C43.2799 48.5242 43.28 48.5231 43.2802 48.5221C43.2803 48.521 43.2805 48.52 43.2807 48.519C43.2808 48.5179 43.281 48.5169 43.2811 48.5158C43.2813 48.5148 43.2814 48.5138 43.2816 48.5127C43.2817 48.5117 43.2819 48.5106 43.2821 48.5096C43.2822 48.5085 43.2824 48.5075 43.2825 48.5065C43.2827 48.5054 43.2828 48.5044 43.283 48.5033C43.2832 48.5023 43.2833 48.5013 43.2835 48.5002C43.2836 48.4992 43.2838 48.4981 43.2839 48.4971C43.2841 48.496 43.2842 48.495 43.2844 48.494C43.2846 48.4929 43.2847 48.4919 43.2849 48.4908C43.285 48.4898 43.2852 48.4888 43.2853 48.4877C43.2855 48.4867 43.2857 48.4856 43.2858 48.4846C43.286 48.4835 43.2861 48.4825 43.2863 48.4815C43.2864 48.4804 43.2866 48.4794 43.2867 48.4783C43.2869 48.4773 43.2871 48.4763 43.2872 48.4752C43.2874 48.4742 43.2875 48.4731 43.2877 48.4721C43.2878 48.471 43.288 48.47 43.2882 48.469C43.2883 48.4679 43.2885 48.4669 43.2886 48.4658C43.2888 48.4648 43.2889 48.4638 43.2891 48.4627C43.2892 48.4617 43.2894 48.4606 43.2896 48.4596C43.2897 48.4585 43.2899 48.4575 43.29 48.4565C43.2902 48.4554 43.2903 48.4544 43.2905 48.4533C43.2907 48.4523 43.2908 48.4513 43.291 48.4502C43.2911 48.4492 43.2913 48.4481 43.2914 48.4471C43.2916 48.446 43.2917 48.445 43.2919 48.444C43.2921 48.4429 43.2922 48.4419 43.2924 48.4408C43.2925 48.4398 43.2927 48.4388 43.2928 48.4377C43.293 48.4367 43.2932 48.4356 43.2933 48.4346C43.2935 48.4335 43.2936 48.4325 43.2938 48.4315C43.2939 48.4304 43.2941 48.4294 43.2942 48.4283C43.2944 48.4273 43.2946 48.4263 43.2947 48.4252C43.2949 48.4242 43.295 48.4231 43.2952 48.4221C43.2953 48.421 43.2955 48.42 43.2957 48.419C43.2958 48.4179 43.296 48.4169 43.2961 48.4158C43.2963 48.4148 43.2964 48.4138 43.2966 48.4127C43.2967 48.4117 43.2969 48.4106 43.2971 48.4096C43.2972 48.4085 43.2974 48.4075 43.2975 48.4065C43.2977 48.4054 43.2978 48.4044 43.298 48.4033C43.2982 48.4023 43.2983 48.4013 43.2985 48.4002C43.2986 48.3992 43.2988 48.3981 43.2989 48.3971C43.2991 48.396 43.2992 48.395 43.2994 48.394C43.2996 48.3929 43.2997 48.3919 43.2999 48.3908C43.3 48.3898 43.3002 48.3888 43.3003 48.3877C43.3005 48.3867 43.3007 48.3856 43.3008 48.3846C43.301 48.3835 43.3011 48.3825 43.3013 48.3815C43.3014 48.3804 43.3016 48.3794 43.3017 48.3783C43.3019 48.3773 43.3021 48.3763 43.3022 48.3752C43.3024 48.3742 43.3025 48.3731 43.3027 48.3721C43.3028 48.371 43.303 48.37 43.3032 48.369C43.3033 48.3679 43.3035 48.3669 43.3036 48.3658C43.3038 48.3648 43.3039 48.3638 43.3041 48.3627C43.3042 48.3617 43.3044 48.3606 43.3046 48.3596C43.3047 48.3585 43.3049 48.3575 43.305 48.3565C43.3052 48.3554 43.3053 48.3544 43.3055 48.3533C43.3057 48.3523 43.3058 48.3513 43.306 48.3502C43.3061 48.3492 43.3063 48.3481 43.3064 48.3471C43.3066 48.346 43.3067 48.345 43.3069 48.344C43.3071 48.3429 43.3072 48.3419 43.3074 48.3408C43.3075 48.3398 43.3077 48.3388 43.3078 48.3377C43.308 48.3367 43.3082 48.3356 43.3083 48.3346C43.3085 48.3335 43.3086 48.3325 43.3088 48.3315C43.3089 48.3304 43.3091 48.3294 43.3092 48.3283C43.3094 48.3273 43.3096 48.3263 43.3097 48.3252C43.3099 48.3242 43.31 48.3231 43.3102 48.3221C43.3103 48.321 43.3105 48.32 43.3107 48.319C43.3108 48.3179 43.311 48.3169 43.3111 48.3158C43.3113 48.3148 43.3114 48.3138 43.3116 48.3127C43.3117 48.3117 43.3119 48.3106 43.3121 48.3096C43.3122 48.3085 43.3124 48.3075 43.3125 48.3065C43.3127 48.3054 43.3128 48.3044 43.313 48.3033C43.3132 48.3023 43.3133 48.3013 43.3135 48.3002C43.3136 48.2992 43.3138 48.2981 43.3139 48.2971C43.3141 48.296 43.3142 48.295 43.3144 48.294C43.3146 48.2929 43.3147 48.2919 43.3149 48.2908C43.315 48.2898 43.3152 48.2888 43.3153 48.2877C43.3155 48.2867 43.3157 48.2856 43.3158 48.2846C43.316 48.2835 43.3161 48.2825 43.3163 48.2815C43.3164 48.2804 43.3166 48.2794 43.3167 48.2783C43.3169 48.2773 43.3171 48.2763 43.3172 48.2752C43.3174 48.2742 43.3175 48.2731 43.3177 48.2721C43.3178 48.271 43.318 48.27 43.3182 48.269C43.3183 48.2679 43.3185 48.2669 43.3186 48.2658C43.3188 48.2648 43.3189 48.2638 43.3191 48.2627C43.3192 48.2617 43.3194 48.2606 43.3196 48.2596C43.3197 48.2585 43.3199 48.2575 43.32 48.2565C43.3202 48.2554 43.3203 48.2544 43.3205 48.2533C43.3207 48.2523 43.3208 48.2513 43.321 48.2502C43.3211 48.2492 43.3213 48.2481 43.3214 48.2471C43.3216 48.246 43.3217 48.245 43.3219 48.244C43.3221 48.2429 43.3222 48.2419 43.3224 48.2408C43.3225 48.2398 43.3227 48.2388 43.3228 48.2377C43.323 48.2367 43.3232 48.2356 43.3233 48.2346C43.3235 48.2335 43.3236 48.2325 43.3238 48.2315C43.3239 48.2304 43.3241 48.2294 43.3242 48.2283C43.3244 48.2273 43.3246 48.2263 43.3247 48.2252C43.3249 48.2242 43.325 48.2231 43.3252 48.2221C43.3253 48.221 43.3255 48.22 43.3257 48.219C43.3258 48.2179 43.326 48.2169 43.3261 48.2158C43.3263 48.2148 43.3264 48.2138 43.3266 48.2127C43.3267 48.2117 43.3269 48.2106 43.3271 48.2096C43.3272 48.2085 43.3274 48.2075 43.3275 48.2065C43.3277 48.2054 43.3278 48.2044 43.328 48.2033C43.3282 48.2023 43.3283 48.2013 43.3285 48.2002C43.3286 48.1992 43.3288 48.1981 43.3289 48.1971C43.3291 48.196 43.3292 48.195 43.3294 48.194C43.3296 48.1929 43.3297 48.1919 43.3299 48.1908C43.33 48.1898 43.3302 48.1888 43.3303 48.1877C43.3305 48.1867 43.3307 48.1856 43.3308 48.1846C43.331 48.1835 43.3311 48.1825 43.3313 48.1815C43.3314 48.1804 43.3316 48.1794 43.3317 48.1783C43.3319 48.1773 43.3321 48.1763 43.3322 48.1752C43.3324 48.1742 43.3325 48.1731 43.3327 48.1721C43.3328 48.171 43.333 48.17 43.3332 48.169C43.3333 48.1679 43.3335 48.1669 43.3336 48.1658C43.3338 48.1648 43.3339 48.1638 43.3341 48.1627C43.3342 48.1617 43.3344 48.1606 43.3346 48.1596C43.3347 48.1585 43.3349 48.1575 43.335 48.1565C43.3352 48.1554 43.3353 48.1544 43.3355 48.1533C43.3357 48.1523 43.3358 48.1513 43.336 48.1502C43.3361 48.1492 43.3363 48.1481 43.3364 48.1471C43.3366 48.146 43.3367 48.145 43.3369 48.144C43.3371 48.1429 43.3372 48.1419 43.3374 48.1408C43.3375 48.1398 43.3377 48.1388 43.3378 48.1377C43.338 48.1367 43.3382 48.1356 43.3383 48.1346C43.3385 48.1335 43.3386 48.1325 43.3388 48.1315C43.3389 48.1304 43.3391 48.1294 43.3392 48.1283C43.3394 48.1273 43.3396 48.1263 43.3397 48.1252C43.3399 48.1242 43.34 48.1231 43.3402 48.1221C43.3403 48.121 43.3405 48.12 43.3407 48.119C43.3408 48.1179 43.341 48.1169 43.3411 48.1158C43.3413 48.1148 43.3414 48.1138 43.3416 48.1127C43.3417 48.1117 43.3419 48.1106 43.3421 48.1096C43.3422 48.1085 43.3424 48.1075 43.3425 48.1065C43.3427 48.1054 43.3428 48.1044 43.343 48.1033C43.3432 48.1023 43.3433 48.1013 43.3435 48.1002C43.3436 48.0992 43.3438 48.0981 43.3439 48.0971C43.3441 48.096 43.3442 48.095 43.3444 48.094C43.3446 48.0929 43.3447 48.0919 43.3449 48.0908C43.345 48.0898 43.3452 48.0888 43.3453 48.0877C43.3455 48.0867 43.3457 48.0856 43.3458 48.0846C43.346 48.0835 43.3461 48.0825 43.3463 48.0815C43.3464 48.0804 43.3466 48.0794 43.3467 48.0783C43.3469 48.0773 43.3471 48.0763 43.3472 48.0752C43.3474 48.0742 43.3475 48.0731 43.3477 48.0721C43.3478 48.071 43.348 48.07 43.3482 48.069C43.3483 48.0679 43.3485 48.0669 43.3486 48.0658C43.3488 48.0648 43.3489 48.0638 43.3491 48.0627C43.3492 48.0617 43.3494 48.0606 43.3496 48.0596C43.3497 48.0585 43.3499 48.0575 43.35 48.0565C43.3502 48.0554 43.3503 48.0544 43.3505 48.0533C43.3507 48.0523 43.3508 48.0513 43.351 48.0502C43.3511 48.0492 43.3513 48.0481 43.3514 48.0471C43.3516 48.046 43.3517 48.045 43.3519 48.044C43.3521 48.0429 43.3522 48.0419 43.3524 48.0408C43.3525 48.0398 43.3527 48.0388 43.3528 48.0377C43.353 48.0367 43.3532 48.0356 43.3533 48.0346C43.3535 48.0335 43.3536 48.0325 43.3538 48.0315C43.3539 48.0304 43.3541 48.0294 43.3542 48.0283C43.3544 48.0273 43.3546 48.0263 43.3547 48.0252C43.3549 48.0242 43.355 48.0231 43.3552 48.0221C43.3553 48.021 43.3555 48.02 43.3557 48.019C43.3558 48.0179 43.356 48.0169 43.3561 48.0158C43.3563 48.0148 43.3564 48.0138 43.3566 48.0127C43.3567 48.0117 43.3569 48.0106 43.3571 48.0096C43.3572 48.0085 43.3574 48.0075 43.3575 48.0065C43.3577 48.0054 43.3578 48.0044 43.358 48.0033C43.3582 48.0023 43.3583 48.0013 43.3585 48.0002C43.3586 47.9992 43.3588 47.9981 43.3589 47.9971C43.3591 47.996 43.3592 47.995 43.3594 47.994C43.3596 47.9929 43.3597 47.9919 43.3599 47.9908C43.36 47.9898 43.3602 47.9888 43.3603 47.9877C43.3605 47.9867 43.3607 47.9856 43.3608 47.9846C43.361 47.9835 43.3611 47.9825 43.3613 47.9815C43.3614 47.9804 43.3616 47.9794 43.3617 47.9783C43.3619 47.9773 43.3621 47.9763 43.3622 47.9752C43.3624 47.9742 43.3625 47.9731 43.3627 47.9721C43.3628 47.971 43.363 47.97 43.3632 47.969C43.3633 47.9679 43.3635 47.9669 43.3636 47.9658C43.3638 47.9648 43.3639 47.9638 43.3641 47.9627C43.3642 47.9617 43.3644 47.9606 43.3646 47.9596C43.3647 47.9585 43.3649 47.9575 43.365 47.9565C43.3652 47.9554 43.3653 47.9544 43.3655 47.9533C43.3657 47.9523 43.3658 47.9513 43.366 47.9502C43.3661 47.9492 43.3663 47.9481 43.3664 47.9471C43.3666 47.946 43.3667 47.945 43.3669 47.944C43.3671 47.9429 43.3672 47.9419 43.3674 47.9408C43.3675 47.9398 43.3677 47.9388 43.3678 47.9377C43.368 47.9367 43.3682 47.9356 43.3683 47.9346C43.3685 47.9335 43.3686 47.9325 43.3688 47.9315C43.3689 47.9304 43.3691 47.9294 43.3692 47.9283C43.3694 47.9273 43.3696 47.9263 43.3697 47.9252C43.3699 47.9242 43.37 47.9231 43.3702 47.9221C43.3703 47.921 43.3705 47.92 43.3707 47.919C43.3708 47.9179 43.371 47.9169 43.3711 47.9158C43.3713 47.9148 43.3714 47.9138 43.3716 47.9127C43.3717 47.9117 43.3719 47.9106 43.3721 47.9096C43.3722 47.9085 43.3724 47.9075 43.3725 47.9065C43.3727 47.9054 43.3728 47.9044 43.373 47.9033C43.3732 47.9023 43.3733 47.9013 43.3735 47.9002C43.3736 47.8992 43.3738 47.8981 43.3739 47.8971C43.3741 47.896 43.3742 47.895 43.3744 47.894C43.3746 47.8929 43.3747 47.8919 43.3749 47.8908C43.375 47.8898 43.3752 47.8888 43.3753 47.8877C43.3755 47.8867 43.3757 47.8856 43.3758 47.8846C43.376 47.8835 43.3761 47.8825 43.3763 47.8815C43.3764 47.8804 43.3766 47.8794 43.3767 47.8783C43.3769 47.8773 43.3771 47.8763 43.3772 47.8752C43.3774 47.8742 43.3775 47.8731 43.3777 47.8721C43.3778 47.871 43.378 47.87 43.3782 47.869C43.3783 47.8679 43.3785 47.8669 43.3786 47.8658C43.3788 47.8648 43.3789 47.8638 43.3791 47.8627C43.3792 47.8617 43.3794 47.8606 43.3796 47.8596C43.3797 47.8585 43.3799 47.8575 43.38 47.8565C43.3802 47.8554 43.3803 47.8544 43.3805 47.8533C43.3807 47.8523 43.3808 47.8513 43.381 47.8502C43.3811 47.8492 43.3813 47.8481 43.3814 47.8471C43.3816 47.846 43.3817 47.845 43.3819 47.844C43.3821 47.8429 43.3822 47.8419 43.3824 47.8408C43.3825 47.8398 43.3827 47.8388 43.3828 47.8377C43.383 47.8367 43.3832 47.8356 43.3833 47.8346C43.3835 47.8335 43.3836 47.8325 43.3838 47.8315C43.3839 47.8304 43.3841 47.8294 43.3842 47.8283C43.3844 47.8273 43.3846 47.8263 43.3847 47.8252C43.3849 47.8242 43.385 47.8231 43.3852 47.8221C43.3853 47.821 43.3855 47.82 43.3857 47.819C43.3858 47.8179 43.386 47.8169 43.3861 47.8158C43.3863 47.8148 43.3864 47.8138 43.3866 47.8127C43.3867 47.8117 43.3869 47.8106 43.3871 47.8096C43.3872 47.8085 43.3874 47.8075 43.3875 47.8065C43.3877 47.8054 43.3878 47.8044 43.388 47.8033C43.3882 47.8023 43.3883 47.8013 43.3885 47.8002C43.3886 47.7992 43.3888 47.7981 43.3889 47.7971C43.3891 47.796 43.3892 47.795 43.3894 47.794C43.3896 47.7929 43.3897 47.7919 43.3899 47.7908C43.39 47.7898 43.3902 47.7888 43.3903 47.7877C43.3905 47.7867 43.3907 47.7856 43.3908 47.7846C43.391 47.7835 43.3911 47.7825 43.3913 47.7815C43.3914 47.7804 43.3916 47.7794 43.3917 47.7783C43.3919 47.7773 43.3921 47.7763 43.3922 47.7752C43.3924 47.7742 43.3925 47.7731 43.3927 47.7721C43.3928 47.771 43.393 47.77 43.3932 47.769C43.3933 47.7679 43.3935 47.7669 43.3936 47.7658C43.3938 47.7648 43.3939 47.7638 43.3941 47.7627C43.3942 47.7617 43.3944 47.7606 43.3946 47.7596C43.3947 47.7585 43.3949 47.7575 43.395 47.7565C43.3952 47.7554 43.3953 47.7544 43.3955 47.7533C43.3957 47.7523 43.3958 47.7513 43.396 47.7502C43.3961 47.7492 43.3963 47.7481 43.3964 47.7471C43.3966 47.746 43.3967 47.745 43.3969 47.744C43.3971 47.7429 43.3972 47.7419 43.3974 47.7408C43.3975 47.7398 43.3977 47.7388 43.3978 47.7377C43.398 47.7367 43.3982 47.7356 43.3983 47.7346C43.3985 47.7335 43.3986 47.7325 43.3988 47.7315C43.3989 47.7304 43.3991 47.7294 43.3992 47.7283C43.3994 47.7273 43.3996 47.7263 43.3997 47.7252C43.3999 47.7242 43.4 47.7231 43.4002 47.7221C43.4003 47.721 43.4005 47.72 43.4007 47.719C43.4008 47.7179 43.401 47.7169 43.4011 47.7158C43.4013 47.7148 43.4014 47.7138 43.4016 47.7127C43.4017 47.7117 43.4019 47.7106 43.4021 47.7096C43.4022 47.7085 43.4024 47.7075 43.4025 47.7065C43.4027 47.7054 43.4028 47.7044 43.403 47.7033C43.4032 47.7023 43.4033 47.7013 43.4035 47.7002C43.4036 47.6992 43.4038 47.6981 43.4039 47.6971C43.4041 47.696 43.4042 47.695 43.4044 47.694C43.4046 47.6929 43.4047 47.6919 43.4049 47.6908C43.405 47.6898 43.4052 47.6888 43.4053 47.6877C43.4055 47.6867 43.4057 47.6856 43.4058 47.6846C43.406 47.6835 43.4061 47.6825 43.4063 47.6815C43.4064 47.6804 43.4066 47.6794 43.4067 47.6783C43.4069 47.6773 43.4071 47.6763 43.4072 47.6752C43.4074 47.6742 43.4075 47.6731 43.4077 47.6721C43.4078 47.671 43.408 47.67 43.4082 47.669C43.4083 47.6679 43.4085 47.6669 43.4086 47.6658C43.4088 47.6648 43.4089 47.6638 43.4091 47.6627C43.4092 47.6617 43.4094 47.6606 43.4096 47.6596C43.4097 47.6585 43.4099 47.6575 43.41 47.6565C43.4102 47.6554 43.4103 47.6544 43.4105 47.6533C43.4107 47.6523 43.4108 47.6513 43.411 47.6502C43.4111 47.6492 43.4113 47.6481 43.4114 47.6471C43.4116 47.646 43.4117 47.645 43.4119 47.644C43.4121 47.6429 43.4122 47.6419 43.4124 47.6408C43.4125 47.6398 43.4127 47.6388 43.4128 47.6377C43.413 47.6367 43.4132 47.6356 43.4133 47.6346C43.4135 47.6335 43.4136 47.6325 43.4138 47.6315C43.4139 47.6304 43.4141 47.6294 43.4142 47.6283C43.4144 47.6273 43.4146 47.6263 43.4147 47.6252C43.4149 47.6242 43.415 47.6231 43.4152 47.6221C43.4153 47.621 43.4155 47.62 43.4157 47.619C43.4158 47.6179 43.416 47.6169 43.4161 47.6158C43.4163 47.6148 43.4164 47.6138 43.4166 47.6127C43.4167 47.6117 43.4169 47.6106 43.4171 47.6096C43.4172 47.6085 43.4174 47.6075 43.4175 47.6065C43.4177 47.6054 43.4178 47.6044 43.418 47.6033C43.4182 47.6023 43.4183 47.6013 43.4185 47.6002C43.4186 47.5992 43.4188 47.5981 43.4189 47.5971C43.4191 47.596 43.4192 47.595 43.4194 47.594C43.4196 47.5929 43.4197 47.5919 43.4199 47.5908C43.42 47.5898 43.4202 47.5888 43.4203 47.5877C43.4205 47.5867 43.4207 47.5856 43.4208 47.5846C43.421 47.5835 43.4211 47.5825 43.4213 47.5815C43.4214 47.5804 43.4216 47.5794 43.4217 47.5783C43.4219 47.5773 43.4221 47.5763 43.4222 47.5752C43.4224 47.5742 43.4225 47.5731 43.4227 47.5721C43.4228 47.571 43.423 47.57 43.4232 47.569C43.4233 47.5679 43.4235 47.5669 43.4236 47.5658C43.4238 47.5648 43.4239 47.5638 43.4241 47.5627C43.4242 47.5617 43.4244 47.5606 43.4246 47.5596C43.4247 47.5585 43.4249 47.5575 43.425 47.5565C43.4252 47.5554 43.4253 47.5544 43.4255 47.5533C43.4257 47.5523 43.4258 47.5513 43.426 47.5502C43.4261 47.5492 43.4263 47.5481 43.4264 47.5471C43.4266 47.546 43.4267 47.545 43.4269 47.544C43.4271 47.5429 43.4272 47.5419 43.4274 47.5408C43.4275 47.5398 43.4277 47.5388 43.4278 47.5377C43.428 47.5367 43.4282 47.5356 43.4283 47.5346C43.4285 47.5335 43.4286 47.5325 43.4288 47.5315C43.4289 47.5304 43.4291 47.5294 43.4292 47.5283C43.4294 47.5273 43.4296 47.5263 43.4297 47.5252C43.4299 47.5242 43.43 47.5231 43.4302 47.5221C43.4303 47.521 43.4305 47.52 43.4307 47.519C43.4308 47.5179 43.431 47.5169 43.4311 47.5158C43.4313 47.5148 43.4314 47.5138 43.4316 47.5127C43.4317 47.5117 43.4319 47.5106 43.4321 47.5096C43.4322 47.5085 43.4324 47.5075 43.4325 47.5065C43.4327 47.5054 43.4328 47.5044 43.433 47.5033C43.4332 47.5023 43.4333 47.5013 43.4335 47.5002C43.4336 47.4992 43.4338 47.4981 43.4339 47.4971C43.4341 47.496 43.4342 47.495 43.4344 47.494C43.4346 47.4929 43.4347 47.4919 43.4349 47.4908C43.435 47.4898 43.4352 47.4888 43.4353 47.4877C43.4355 47.4867 43.4357 47.4856 43.4358 47.4846C43.436 47.4835 43.4361 47.4825 43.4363 47.4815C43.4364 47.4804 43.4366 47.4794 43.4367 47.4783C43.4369 47.4773 43.4371 47.4763 43.4372 47.4752C43.4374 47.4742 43.4375 47.4731 43.4377 47.4721C43.4378 47.471 43.438 47.47 43.4382 47.469C43.4383 47.4679 43.4385 47.4669 43.4386 47.4658C43.4388 47.4648 43.4389 47.4638 43.4391 47.4627C43.4392 47.4617 43.4394 47.4606 43.4396 47.4596C43.4397 47.4585 43.4399 47.4575 43.44 47.4565C43.4402 47.4554 43.4403 47.4544 43.4405 47.4533C43.4407 47.4523 43.4408 47.4513 43.441 47.4502C43.4411 47.4492 43.4413 47.4481 43.4414 47.4471C43.4416 47.446 43.4417 47.445 43.4419 47.444C43.4421 47.4429 43.4422 47.4419 43.4424 47.4408C43.4425 47.4398 43.4427 47.4388 43.4428 47.4377C43.443 47.4367 43.4432 47.4356 43.4433 47.4346C43.4435 47.4335 43.4436 47.4325 43.4438 47.4315C43.4439 47.4304 43.4441 47.4294 43.4442 47.4283C43.4444 47.4273 43.4446 47.4263 43.4447 47.4252C43.4449 47.4242 43.445 47.4231 43.4452 47.4221C43.4453 47.421 43.4455 47.42 43.4457 47.419C43.4458 47.4179 43.446 47.4169 43.4461 47.4158C43.4463 47.4148 43.4464 47.4138 43.4466 47.4127C43.4467 47.4117 43.4469 47.4106 43.4471 47.4096C43.4472 47.4085 43.4474 47.4075 43.4475 47.4065C43.4477 47.4054 43.4478 47.4044 43.448 47.4033C43.4482 47.4023 43.4483 47.4013 43.4485 47.4002C43.4486 47.3992 43.4488 47.3981 43.4489 47.3971C43.4491 47.396 43.4492 47.395 43.4494 47.394C43.4496 47.3929 43.4497 47.3919 43.4499 47.3908C43.45 47.3898 43.4502 47.3888 43.4503 47.3877C43.4505 47.3867 43.4507 47.3856 43.4508 47.3846C43.451 47.3835 43.4511 47.3825 43.4513 47.3815C43.4514 47.3804 43.4516 47.3794 43.4517 47.3783C43.4519 47.3773 43.4521 47.3763 43.4522 47.3752C43.4524 47.3742 43.4525 47.3731 43.4527 47.3721C43.4528 47.371 43.453 47.37 43.4532 47.369C43.4533 47.3679 43.4535 47.3669 43.4536 47.3658C43.4538 47.3648 43.4539 47.3638 43.4541 47.3627C43.4542 47.3617 43.4544 47.3606 43.4546 47.3596C43.4547 47.3585 43.4549 47.3575 43.455 47.3565C43.4552 47.3554 43.4553 47.3544 43.4555 47.3533C43.4557 47.3523 43.4558 47.3513 43.456 47.3502C43.4561 47.3492 43.4563 47.3481 43.4564 47.3471C43.4566 47.346 43.4567 47.345 43.4569 47.344C43.4571 47.3429 43.4572 47.3419 43.4574 47.3408C43.4575 47.3398 43.4577 47.3388 43.4578 47.3377C43.458 47.3367 43.4582 47.3356 43.4583 47.3346C43.4585 47.3335 43.4586 47.3325 43.4588 47.3315C43.4589 47.3304 43.4591 47.3294 43.4592 47.3283C43.4594 47.3273 43.4596 47.3263 43.4597 47.3252C43.4599 47.3242 43.46 47.3231 43.4602 47.3221C43.4603 47.321 43.4605 47.32 43.4607 47.319C43.4608 47.3179 43.461 47.3169 43.4611 47.3158C43.4613 47.3148 43.4614 47.3138 43.4616 47.3127C43.4617 47.3117 43.4619 47.3106 43.4621 47.3096C43.4622 47.3085 43.4624 47.3075 43.4625 47.3065C43.4627 47.3054 43.4628 47.3044 43.463 47.3033C43.4632 47.3023 43.4633 47.3013 43.4635 47.3002C43.4636 47.2992 43.4638 47.2981 43.4639 47.2971C43.4641 47.296 43.4642 47.295 43.4644 47.294C43.4646 47.2929 43.4647 47.2919 43.4649 47.2908C43.465 47.2898 43.4652 47.2888 43.4653 47.2877C43.4655 47.2867 43.4657 47.2856 43.4658 47.2846C43.466 47.2835 43.4661 47.2825 43.4663 47.2815C43.4664 47.2804 43.4666 47.2794 43.4667 47.2783C43.4669 47.2773 43.4671 47.2763 43.4672 47.2752C43.4674 47.2742 43.4675 47.2731 43.4677 47.2721C43.4678 47.271 43.468 47.27 43.4682 47.269C43.4683 47.2679 43.4685 47.2669 43.4686 47.2658C43.4688 47.2648 43.4689 47.2638 43.4691 47.2627C43.4692 47.2617 43.4694 47.2606 43.4696 47.2596C43.4697 47.2585 43.4699 47.2575 43.47 47.2565C43.4702 47.2554 43.4703 47.2544 43.4705 47.2533C43.4707 47.2523 43.4708 47.2513 43.471 47.2502C43.4711 47.2492 43.4713 47.2481 43.4714 47.2471C43.4716 47.246 43.4717 47.245 43.4719 47.244C43.4721 47.2429 43.4722 47.2419 43.4724 47.2408C43.4725 47.2398 43.4727 47.2388 43.4728 47.2377C43.473 47.2367 43.4732 47.2356 43.4733 47.2346C43.4735 47.2335 43.4736 47.2325 43.4738 47.2315C43.4739 47.2304 43.4741 47.2294 43.4742 47.2283L41.4964 46.9317ZM42.0525 47.6988L35.1325 49.0588L35.5182 51.0212L42.4382 49.6612L42.0525 47.6988ZM44.8977 36.3276C45.7478 36.1059 46.5147 35.5746 47.2073 34.8519L45.7633 33.4681C45.2292 34.0254 44.7695 34.2941 44.3929 34.3924L44.8977 36.3276ZM47.2212 34.8371C47.9328 34.0636 48.4992 33.1123 48.9355 32.0072L47.0752 31.2728C46.7114 32.1944 46.2645 32.923 45.7494 33.4829L47.2212 34.8371ZM48.9355 32.0072C49.3861 30.8656 49.6053 29.6329 49.6053 28.32H47.6053C47.6053 29.4071 47.4245 30.3877 47.0752 31.2728L48.9355 32.0072ZM49.6053 28.32C49.6053 27.1966 49.3486 26.171 48.6706 25.4132L47.1801 26.7468C47.4087 27.0023 47.6053 27.47 47.6053 28.32H49.6053ZM48.6902 25.4359C48.1236 24.763 47.3834 24.32 46.4853 24.32V26.32C46.6539 26.32 46.8737 26.3836 47.1604 26.7241L48.6902 25.4359ZM45.4989 25.1556C45.2065 26.91 44.9143 28.5703 44.6223 30.1367L46.5884 30.5033C46.883 28.923 47.1774 27.25 47.4717 25.4844L45.4989 25.1556ZM44.6223 30.1367C44.3294 31.7074 44.0099 33.3849 43.6636 35.1695L45.627 35.5505C45.9741 33.7617 46.2945 32.0793 46.5884 30.5033L44.6223 30.1367Z" fill="black" mask="url(#path-2-outside-1_1302_4983)"/>
</svg>
