<svg width="139" height="50" viewBox="0 0 139 50" fill="none" xmlns="http://www.w3.org/2000/svg">
<g clip-path="url(#clip0_208_239)">
<path d="M48.9151 49.1837V42.9592H64.167C65.22 42.9592 65.7635 42.381 65.7635 41.2585V34.1837H64.7445C64.4388 34.83 63.9632 35.4762 63.3178 36.0885C62.6724 36.7007 61.8232 37.2449 60.7362 37.6871C59.6492 38.0953 58.2564 38.2993 56.558 38.2993C54.384 38.2993 52.4818 37.7891 50.8173 36.8027C49.1868 35.8163 47.896 34.4218 47.0128 32.6531C46.0956 30.8844 45.6541 28.8436 45.6541 26.5306V9.82996H52.7535V25.9864C52.7535 28.0953 53.263 29.6939 54.3161 30.7483C55.3351 31.8027 56.8298 32.347 58.732 32.347C60.906 32.347 62.6044 31.6327 63.8273 30.1701C65.0162 28.7075 65.6277 26.7007 65.6277 24.0817V9.82996H72.7271V42.8572C72.7271 44.7619 72.1497 46.3266 71.0287 47.449C69.9077 48.6055 68.3791 49.1837 66.5108 49.1837H48.8811H48.9151Z" fill="#1E48F6"/>
<path d="M30.0623 24.3197C30.0623 32.9932 24.0499 38.5374 16.305 38.5374C12.6024 38.5374 9.64712 37.3469 7.64296 34.932V38.1293H0V0H8.01662V13.4014C10.0547 11.1565 12.9081 10.068 16.339 10.068C24.0838 10.068 30.0963 15.6122 30.0963 24.2857L30.0623 24.3197ZM21.9778 24.3197C21.9778 19.5578 18.9545 16.6667 14.9462 16.6667C10.9379 16.6667 7.91471 19.5578 7.91471 24.3197C7.91471 29.0816 10.9379 31.9728 14.9462 31.9728C18.9545 31.9728 21.9778 29.0816 21.9778 24.3197Z" fill="#1E48F6"/>
<path d="M31.5569 28.9796V0H39.5735V28.5034C39.5735 30.8844 40.7964 32.1429 43.0043 32.1429C43.8875 32.1429 44.8047 31.8707 45.2463 31.6327L45.6199 37.8571C44.2272 38.3333 42.8345 38.5374 41.4758 38.5374C35.2595 38.5374 31.5569 35.1361 31.5569 28.9796Z" fill="#1E48F6"/>
<path d="M105.337 22.313V38.1293H97.3203V23.5374C97.3203 19.0817 95.2822 17.0068 91.7155 17.0068C87.877 17.0068 85.0916 19.3538 85.0916 24.4558V38.1293H77.075V10.4762H84.7179V13.7075C86.8579 11.3266 90.1189 10.0681 93.8555 10.0681C100.377 10.0681 105.303 13.8776 105.303 22.313H105.337Z" fill="#1E48F6"/>
<path d="M120.589 27.2789L116.751 31.0884V38.1293H108.734V0H116.751V21.5986L128.436 10.5102H137.981L126.5 22.2109L139.034 38.1293H129.319L120.589 27.2789Z" fill="#1E48F6"/>
<path d="M105.337 42.6531H77.1089V49.1837H105.337V42.6531Z" fill="black"/>
<path d="M112.81 50C115.061 50 116.886 48.1726 116.886 45.9184C116.886 43.6641 115.061 41.8367 112.81 41.8367C110.559 41.8367 108.734 43.6641 108.734 45.9184C108.734 48.1726 110.559 50 112.81 50Z" fill="black"/>
</g>
<defs>
<clipPath id="clip0_208_239">
<rect width="139" height="50" fill="white"/>
</clipPath>
</defs>
</svg>
