<svg width="137" height="138" viewBox="0 0 137 138" fill="none" xmlns="http://www.w3.org/2000/svg">
<g clip-path="url(#clip0_601_638)">
<path d="M103.846 85.3542C106.216 87.7243 108.156 90.166 110.274 93.3619L104.391 95.4577C103.206 93.698 104.312 95.3013 103.307 94.0812L102.732 94.656L100.47 97.0613L97.4887 100.114C96.7707 100.904 96.0164 101.658 95.2984 102.448L93.79 103.957C89.0494 108.697 86.428 110.529 83.4117 111.175C78.9945 112.145 74.6852 110.493 70.4482 106.256C68.2936 104.102 66.7498 101.912 65.5647 99.2179L70.6642 94.1185L70.6646 94.1189C71.5986 97.0636 73.0707 99.4691 75.1173 101.516C78.7439 105.142 81.7601 105.214 85.2799 101.695L85.3875 101.587C83.772 101.048 82.4788 100.186 81.0428 98.7505C76.1951 93.9029 76.3027 87.6181 81.3663 82.5545C87.6514 76.2694 95.7672 77.275 103.846 85.3538M53.3276 35.5535L40.507 48.3741C36.0896 52.7915 33.6477 54.5868 30.8466 55.4493C28.1888 56.3111 25.8906 56.239 22.228 55.0188L19.5351 47.4417C23.126 48.7344 25.3159 48.914 27.6149 48.123C29.9852 47.3331 32.0684 45.7531 36.8805 40.941L47.7976 30.0239L53.3276 35.5535ZM119.757 101.049C125.286 106.579 125.178 113.438 119.54 119.076C113.758 124.858 106.612 124.967 101.01 119.364C95.4799 113.834 95.5522 106.939 101.154 101.337C106.973 95.5192 114.119 95.4113 119.757 101.049ZM64.3878 45.8245C67.2246 48.6613 68.3377 51.2823 67.6912 53.5807C67.3318 54.8734 66.3982 56.0942 64.0995 58.3929L52.8593 69.6331C50.0222 67.5143 46.6469 64.6422 44.3488 62.3441C39.7168 57.7121 39.2503 54.0123 42.8412 50.4215C46.72 46.5427 51.2803 47.5121 58.6421 53.7244L59.8632 52.5034C60.8685 51.498 60.7248 50.6365 59.3242 49.2359C57.2776 47.1893 54.405 45.4654 51.1367 44.4244L55.4106 40.1505C59.0015 41.444 61.8382 43.2749 64.3878 45.8245ZM53.0708 18.2156L27.4714 43.8151C24.0962 41.5171 21.7977 39.6496 19.5358 37.3878C12.7848 30.6367 12.3184 24.0651 18.1722 18.2114C23.8105 12.5731 31.2078 12.6449 36.989 18.4261C37.8866 19.3237 38.4975 20.0776 39.1079 21.119L47.541 12.6858L53.0708 18.2156ZM81.9109 63.3476C84.7477 66.1844 86.1482 68.8775 86.1126 71.3558C86.0767 73.6897 85.1428 75.3413 82.3772 78.1069L71.5318 88.9523L66.0018 83.4223L76.6317 72.7924C78.7504 70.6736 78.8228 69.1651 76.8479 67.1902C76.0938 66.4361 75.3398 65.8259 73.9032 65.0356L60.7591 78.1797L55.2293 72.6499L71.9646 55.9145C76.0939 58.3203 79.1818 60.6185 81.9109 63.3476ZM55.266 57.6034C51.244 54.2996 49.4842 53.6894 48.0479 55.1257C46.9707 56.203 47.1503 57.3884 48.6584 58.8964C49.4843 59.7224 50.31 60.4047 51.5669 61.3025L55.266 57.6034ZM115.232 105.431C113.041 103.24 110.024 103.743 106.972 106.795C103.919 109.848 103.416 112.864 105.57 115.018C107.69 117.138 110.706 116.635 113.759 113.582C116.775 110.565 117.35 107.549 115.232 105.431ZM33.0752 23.4175C30.2743 20.6166 26.9343 20.7245 23.9179 23.7409C20.9729 26.6859 20.9012 29.8464 23.7378 32.683C24.3481 33.2932 24.8868 33.7601 25.7843 34.4426L34.6551 25.5718C34.224 24.7101 33.7573 24.0996 33.0752 23.4175ZM93.6125 85.6061C91.5299 85.0324 89.4823 85.7145 87.5433 87.6536C84.7777 90.4192 84.5626 93.364 87.0042 95.8056C87.7583 96.5596 88.5127 97.0265 89.4459 97.529L91.3489 95.626C91.9954 94.9795 92.6784 94.2254 93.4323 93.4715L95.9463 90.886L97.7418 89.0183L98.1729 88.5871L97.5982 88.0124C96.5572 86.8995 95.0132 85.9299 93.6125 85.6065M61.8385 27.0426L56.1643 32.7168L50.6345 27.187L56.3089 21.5126L61.8385 27.0426Z" fill="#092E20"/>
</g>
<defs>
<clipPath id="clip0_601_638">
<rect width="143" height="50" fill="white" transform="translate(35.6194 0.764191) rotate(45)"/>
</clipPath>
</defs>
</svg>
