<svg width="56" height="50" viewBox="0 0 56 50" fill="none" xmlns="http://www.w3.org/2000/svg">
<g clip-path="url(#clip0_601_598)">
<path d="M46.0418 16.1895C45.4459 15.9845 44.8449 15.7946 44.2394 15.6199C44.3411 15.2033 44.4348 14.7917 44.5179 14.3873C45.8823 7.7467 44.9903 2.39692 41.9436 0.635519C39.0225 -1.05308 34.2451 0.707668 29.4203 4.91754C28.9448 5.33318 28.4799 5.7608 28.0259 6.19999C27.722 5.90794 27.4128 5.62156 27.0983 5.341C22.0416 0.839686 16.9732 -1.05746 13.9298 0.708984C11.0112 2.40284 10.147 7.43201 11.3754 13.7254C11.4976 14.3487 11.6356 14.9688 11.7892 15.5851C11.0718 15.7895 10.3795 16.007 9.71698 16.2386C3.78847 18.311 0.00244141 21.5585 0.00244141 24.9272C0.00244141 28.4063 4.06692 31.896 10.2417 34.0121C10.7423 34.1829 11.2471 34.3412 11.7556 34.4868C11.5904 35.1506 11.4438 35.8188 11.3159 36.4908C10.1448 42.675 11.0593 47.5853 13.97 49.2684C16.9763 51.0066 22.022 49.2202 26.9349 44.9142C27.3333 44.5642 27.7229 44.2042 28.1034 43.8346C28.595 44.3102 29.0997 44.7719 29.617 45.2193C34.3762 49.325 39.0763 50.9829 41.9841 49.2952C44.9875 47.552 45.9637 42.277 44.6964 35.8592C44.5965 35.3564 44.4846 34.8561 44.3606 34.3588C44.715 34.2535 45.0627 34.1452 45.4018 34.0324C51.8211 31.9002 55.9978 28.4528 55.9978 24.9272C55.9978 21.5463 52.0895 18.2767 46.0418 16.1895ZM44.6496 31.7561C44.3433 31.8577 44.0292 31.9557 43.709 32.0511C43.0003 29.8017 42.044 27.4101 40.8736 24.9388C41.9904 22.5265 42.91 20.1653 43.5988 17.9307C44.1716 18.0969 44.7274 18.2721 45.2633 18.457C50.4451 20.2456 53.6057 22.8897 53.6057 24.9272C53.6057 27.0974 50.1922 29.9147 44.6496 31.7561ZM42.3498 36.325C42.9102 39.1627 42.99 41.7285 42.6188 43.7344C42.2855 45.5368 41.6149 46.7384 40.7854 47.2197C39.0209 48.2439 35.2471 46.9127 31.1772 43.4013C30.6961 42.9854 30.2266 42.5561 29.7692 42.114C31.3472 40.384 32.924 38.3728 34.463 36.139C37.17 35.8982 39.7274 35.5044 42.0466 34.9669C42.1584 35.4171 42.2594 35.87 42.3498 36.325ZM19.0925 47.0428C17.3684 47.6531 15.9952 47.6706 15.1652 47.1908C13.3989 46.1695 12.6646 42.2267 13.6662 36.9382C13.7852 36.3132 13.9216 35.6917 14.075 35.0743C16.3686 35.5831 18.9074 35.9489 21.6208 36.1695C23.1703 38.3553 24.7926 40.3642 26.4277 42.1235C26.0802 42.4605 25.7245 42.789 25.3609 43.1085C23.1882 45.0125 21.0112 46.3634 19.0925 47.0428ZM11.0156 31.7428C8.28516 30.807 6.03025 29.591 4.4847 28.264C3.09575 27.0717 2.39471 25.8877 2.39471 24.9272C2.39471 22.8829 5.43443 20.2754 10.5044 18.5033C11.1197 18.2884 11.7637 18.0855 12.4319 17.8952C13.1327 20.1803 14.0518 22.5695 15.161 24.9855C14.0374 27.4373 13.1051 29.8647 12.3975 32.1767C11.9334 32.0435 11.4726 31.8987 11.0156 31.7428ZM13.7231 13.2647C12.6707 7.8728 13.3696 3.80547 15.1284 2.78464C17.0016 1.69736 21.144 3.24758 25.5101 7.13442C25.7948 7.38845 26.0749 7.64763 26.3502 7.91183C24.7233 9.66337 23.1158 11.6574 21.5801 13.8303C18.9466 14.075 16.4257 14.468 14.108 14.9945C13.9652 14.4213 13.8369 13.8444 13.7231 13.2647ZM37.877 19.2445C37.3295 18.2965 36.7618 17.3604 36.1741 16.4368C37.9607 16.6634 39.6725 16.964 41.28 17.3316C40.7975 18.8824 40.196 20.5037 39.4879 22.166C38.9704 21.1815 38.4333 20.2075 37.877 19.2445ZM28.027 9.62587C29.1303 10.8243 30.2353 12.1623 31.3222 13.614C29.1174 13.5096 26.9089 13.5092 24.7041 13.6127C25.792 12.1743 26.9065 10.8381 28.027 9.62587ZM18.1139 19.261C17.5645 20.2162 17.0374 21.1841 16.5331 22.164C15.8367 20.5077 15.2406 18.8789 14.7539 17.3061C16.3516 16.9478 18.0553 16.6548 19.8305 16.4324C19.2363 17.3616 18.6639 18.3049 18.1139 19.261ZM19.8815 33.5925C18.0474 33.3873 16.3181 33.1094 14.7209 32.7607C15.2152 31.1599 15.8244 29.4965 16.5359 27.8046C17.0423 28.7852 17.5715 29.7538 18.1233 30.7094C18.6907 31.6919 19.2782 32.6542 19.8815 33.5925ZM28.0931 40.3974C26.9592 39.171 25.8283 37.8142 24.724 36.355C25.7962 36.3971 26.8892 36.4186 28.0001 36.4186C29.1415 36.4186 30.2697 36.393 31.3802 36.3434C30.2898 37.8289 29.1889 39.1877 28.0931 40.3974ZM39.5105 27.7182C40.259 29.4287 40.8898 31.0833 41.3907 32.6568C39.7672 33.0283 38.0143 33.3274 36.1674 33.5496C36.7592 32.6089 37.3323 31.6565 37.8864 30.693C38.4497 29.7136 38.9912 28.7217 39.5105 27.7182ZM35.8143 29.4947C34.9661 30.972 34.0702 32.4212 33.1281 33.8401C31.4214 33.9613 29.711 34.0215 28.0001 34.0206C26.2575 34.0206 24.5625 33.9662 22.9304 33.8601C21.9636 32.4445 21.0506 30.9927 20.1934 29.5079C19.3401 28.0309 18.5434 26.522 17.8044 24.9844C18.5415 23.4465 19.336 21.9368 20.1864 20.4588C21.0364 18.9803 21.9418 17.535 22.9013 16.1254C24.5665 15.9991 26.2741 15.9333 27.9999 15.9333C29.7336 15.9333 31.4436 15.9998 33.1084 16.127C34.0581 17.5344 34.958 18.975 35.8064 20.446C36.6596 21.9209 37.4647 23.4231 38.2204 24.9504C37.4724 26.4934 36.6699 28.0091 35.8143 29.4947ZM40.7489 2.71315C42.6239 3.79736 43.3531 8.16951 42.175 13.9031C42.0998 14.2689 42.0154 14.6414 41.9235 15.0193C39.6001 14.4816 37.0775 14.0818 34.4363 13.8333C32.8977 11.6366 31.3034 9.63946 29.703 7.91052C30.1224 7.50515 30.5518 7.11029 30.9908 6.72631C35.1249 3.11951 38.9886 1.69539 40.7489 2.71315ZM28.0001 19.914C30.7616 19.914 33.0003 22.1585 33.0003 24.9272C33.0003 27.6958 30.7616 29.9403 28.0001 29.9403C25.2386 29.9403 22.9999 27.6958 22.9999 24.9272C22.9999 22.1585 25.2386 19.914 28.0001 19.914Z" fill="#00D8FF"/>
</g>
<defs>
<clipPath id="clip0_601_598">
<rect width="56" height="50" fill="white"/>
</clipPath>
</defs>
</svg>
