<svg width="51" height="50" viewBox="0 0 51 50" fill="none" xmlns="http://www.w3.org/2000/svg">
<g clip-path="url(#clip0_601_615)">
<path d="M0 43.5529C0 47.1139 2.94425 50 6.57601 50H44.4238C48.0561 50 51 47.1135 51 43.5529V6.44727C51 2.88613 48.0557 0 44.424 0H6.57621C2.94386 0 0 2.88652 0 6.44707V43.5527V43.5529Z" fill="#563D7C"/>
<path d="M21.1486 22.1168V15.0361H27.5059C28.1115 15.0361 28.6952 15.0855 29.2574 15.1846C29.8196 15.2834 30.3171 15.46 30.7496 15.7145C31.1819 15.9689 31.5279 16.3223 31.7875 16.7744C32.0469 17.2268 32.1768 17.8063 32.1768 18.5127C32.1768 19.7848 31.7875 20.7035 31.0089 21.2688C30.2306 21.8342 29.2359 22.1168 28.0248 22.1168H21.1486ZM14.3586 9.86328V40.1367H29.3224C30.7063 40.1367 32.0542 39.9672 33.3661 39.6279C34.678 39.2887 35.8456 38.7658 36.8692 38.0592C37.8926 37.3525 38.7072 36.4408 39.3126 35.3244C39.9182 34.2078 40.2208 32.8863 40.2208 31.36C40.2208 29.466 39.7523 27.8479 38.8153 26.5053C37.8782 25.1625 36.4582 24.2227 34.5552 23.6855C35.9392 23.0355 36.9845 22.2016 37.6909 21.184C38.3972 20.1664 38.7504 18.8945 38.7504 17.368C38.7504 15.9547 38.5125 14.7676 38.0368 13.8064C37.5611 12.8455 36.8907 12.0752 36.0257 11.4957C35.1609 10.9162 34.1229 10.4992 32.9119 10.2449C31.701 9.99043 30.3603 9.86328 28.8899 9.86328H14.3586ZM21.1486 34.9639V26.6535H28.5438C30.0143 26.6535 31.1964 26.9855 32.0903 27.65C32.984 28.3143 33.431 29.4236 33.431 30.9783C33.431 31.7699 33.294 32.4199 33.0201 32.9287C32.7461 33.4375 32.3786 33.8404 31.9172 34.1371C31.456 34.434 30.9225 34.6459 30.3171 34.7732C29.7114 34.9002 29.0773 34.9639 28.4141 34.9639H21.1486Z" fill="white"/>
</g>
<defs>
<clipPath id="clip0_601_615">
<rect width="51" height="50" fill="white"/>
</clipPath>
</defs>
</svg>
