<svg width="82" height="50" viewBox="0 0 82 50" fill="none" xmlns="http://www.w3.org/2000/svg">
<g clip-path="url(#clip0_601_641)">
<path d="M40.5372 49.8557C40.2596 49.8557 40.0005 49.7821 39.7598 49.6533L37.298 48.1995C36.9277 47.9969 37.1129 47.9234 37.224 47.8866C37.7237 47.721 37.8163 47.6841 38.3345 47.3898C38.3901 47.3528 38.4643 47.3713 38.5197 47.4081L40.4078 48.5307C40.4818 48.5675 40.5743 48.5675 40.6297 48.5307L48.0153 44.2794C48.0893 44.2427 48.1265 44.1689 48.1265 44.077V35.593C48.1265 35.5008 48.0893 35.4274 48.0153 35.3904L40.6297 31.1576C40.5557 31.1207 40.4632 31.1207 40.4078 31.1576L33.0222 35.3904C32.9482 35.4272 32.911 35.5192 32.911 35.5928V44.0769C32.911 44.1506 32.9482 44.2425 33.0222 44.2794L35.0398 45.4388C36.1319 45.9909 36.8167 45.3468 36.8167 44.7027V36.329C36.8167 36.2186 36.9093 36.1081 37.0389 36.1081H37.9828C38.094 36.1081 38.205 36.2001 38.205 36.329V44.7027C38.205 46.1565 37.409 47.0032 36.0208 47.0032C35.5951 47.0032 35.2619 47.0032 34.3178 46.543L32.3743 45.4388C31.8931 45.1629 31.5969 44.6474 31.5969 44.0954V35.6113C31.5969 35.0592 31.8931 34.5438 32.3743 34.2678L39.7598 30.0165C40.2226 29.7589 40.852 29.7589 41.3147 30.0165L48.7002 34.2678C49.1814 34.5438 49.4777 35.0592 49.4777 35.6113V44.0954C49.4777 44.6474 49.1814 45.1629 48.7002 45.4388L41.3147 49.6901C41.074 49.8006 40.7963 49.8557 40.5372 49.8557ZM42.8141 44.0218C39.5749 44.0218 38.9085 42.5495 38.9085 41.2981C38.9085 41.1876 39.0011 41.0772 39.1307 41.0772H40.0932C40.2042 41.0772 40.2968 41.1508 40.2968 41.2613C40.4449 42.2366 40.8706 42.7151 42.8327 42.7151C44.3875 42.7151 45.0541 42.3654 45.0541 41.5372C45.0541 41.0587 44.8688 40.7092 42.444 40.4699C40.4263 40.2673 39.1677 39.8258 39.1677 38.2247C39.1677 36.7339 40.4265 35.8505 42.5366 35.8505C44.9057 35.8505 46.072 36.6603 46.2202 38.4269C46.2202 38.4822 46.2016 38.5374 46.1646 38.5927C46.1274 38.6294 46.072 38.6662 46.0164 38.6662H45.0539C44.9613 38.6662 44.8688 38.5927 44.8503 38.5006C44.6282 37.4885 44.0544 37.1571 42.5366 37.1571C40.8336 37.1571 40.6299 37.7462 40.6299 38.1877C40.6299 38.7215 40.8706 38.8871 43.1658 39.1815C45.4426 39.4761 46.5163 39.8993 46.5163 41.482C46.4977 43.1016 45.165 44.0218 42.8141 44.0218Z" fill="#539E43"/>
<path d="M17.6218 16.6739C17.6218 16.3427 17.4366 16.0296 17.1405 15.864L9.29222 11.3735C9.16249 11.2998 9.01451 11.263 8.86652 11.2446H8.79237C8.64439 11.2446 8.49624 11.2998 8.36668 11.3735L0.518379 15.864C0.22209 16.0296 0.0371094 16.3425 0.0371094 16.6739L0.0556875 28.7466C0.0556875 28.9122 0.148258 29.0778 0.296242 29.1516C0.444387 29.2436 0.629367 29.2436 0.759094 29.1516L5.42364 26.5014C5.71977 26.3358 5.90491 26.0229 5.90491 25.6917V20.0417C5.90491 19.7105 6.08989 19.3976 6.38618 19.232L8.36668 18.0909C8.51482 17.9989 8.68138 17.9619 8.84795 17.9619C9.01451 17.9619 9.18107 17.9989 9.3108 18.0909L11.2913 19.232C11.5876 19.3976 11.7726 19.7103 11.7726 20.0417V25.6917C11.7726 26.0229 11.9577 26.3358 12.2538 26.5014L16.9184 29.1516C16.9904 29.1967 17.0739 29.2206 17.159 29.2206C17.2442 29.2206 17.3276 29.1967 17.3996 29.1516C17.5478 29.0778 17.6404 28.9122 17.6404 28.7466L17.6218 16.6739ZM55.3455 0.0552335C55.1975 -0.0184926 55.0123 -0.0184926 54.8826 0.0552335C54.7346 0.147272 54.6421 0.294406 54.6421 0.460011V12.4226C54.6421 12.5329 54.5867 12.6433 54.4755 12.717C54.3645 12.7721 54.2534 12.7721 54.1424 12.717L52.1803 11.5944C52.0364 11.513 51.8738 11.4702 51.7082 11.4702C51.5427 11.4702 51.38 11.513 51.2362 11.5944L43.3879 16.1033C43.0918 16.2689 42.9066 16.5818 42.9066 16.913V25.9124C42.9066 26.2436 43.0918 26.5567 43.3879 26.7223L51.2362 31.2312C51.38 31.3126 51.5427 31.3554 51.7082 31.3554C51.8738 31.3554 52.0364 31.3126 52.1803 31.2312L60.0286 26.7223C60.3247 26.5567 60.5099 26.2438 60.5099 25.9124V3.47832C60.5099 3.12864 60.3247 2.8159 60.0286 2.65014L55.3455 0.0552335ZM54.6236 22.9495C54.6236 23.0415 54.5866 23.1151 54.5125 23.1519L51.8286 24.6977C51.7911 24.716 51.75 24.7255 51.7082 24.7255C51.6665 24.7255 51.6254 24.716 51.5879 24.6977L48.904 23.1519C48.8298 23.1151 48.7928 23.0231 48.7928 22.9495V19.8576C48.7928 19.7656 48.8298 19.692 48.904 19.6552L51.5879 18.1092C51.6254 18.091 51.6665 18.0815 51.7082 18.0815C51.75 18.0815 51.7911 18.091 51.8286 18.1092L54.5125 19.6552C54.5866 19.6919 54.6236 19.7841 54.6236 19.8576V22.9495ZM81.4633 19.7841C81.7596 19.6185 81.9261 19.3056 81.9261 18.9742V16.7842C81.9261 16.453 81.741 16.1401 81.4633 15.9745L73.6705 11.4841C73.5267 11.4027 73.364 11.3599 73.1985 11.3599C73.033 11.3599 72.8703 11.4027 72.7264 11.4841L64.8781 15.9928C64.5818 16.1584 64.3969 16.4713 64.3969 16.8025V25.802C64.3969 26.1333 64.582 26.4462 64.8781 26.6118L72.6709 31.0286C72.9671 31.1942 73.3188 31.1942 73.5966 31.0286L78.3165 28.4156C78.4647 28.3419 78.5572 28.1763 78.5572 28.0106C78.5572 27.845 78.4647 27.6794 78.3165 27.6057L70.4312 23.0968C70.2831 23.0048 70.1905 22.8576 70.1905 22.692V19.8763C70.1905 19.7106 70.2831 19.545 70.4312 19.4713L72.893 18.0726C72.965 18.0275 73.0485 18.0035 73.1336 18.0035C73.2188 18.0035 73.3022 18.0275 73.3743 18.0726L75.8362 19.4713C75.9843 19.5634 76.0767 19.7105 76.0767 19.8763V22.0847C76.0767 22.2503 76.1693 22.4159 76.3175 22.4895C76.3895 22.5346 76.4729 22.5585 76.5581 22.5585C76.6432 22.5585 76.7267 22.5346 76.7987 22.4895L81.4633 19.7841Z" fill="#333333"/>
<path d="M73.0781 19.3607C73.1056 19.3426 73.1378 19.333 73.1707 19.333C73.2036 19.333 73.2358 19.3426 73.2633 19.3607L74.7626 20.2256C74.8181 20.2626 74.8551 20.3177 74.8551 20.3912V22.1213C74.8551 22.1949 74.8182 22.2501 74.7626 22.2869L73.2633 23.1519C73.2358 23.1699 73.2036 23.1795 73.1707 23.1795C73.1378 23.1795 73.1056 23.1699 73.0781 23.1519L71.5789 22.2869C71.5233 22.2501 71.4863 22.1949 71.4863 22.1213V20.3914C71.4863 20.3177 71.5232 20.2624 71.5789 20.2258L73.0781 19.3607Z" fill="#539E43"/>
<path d="M30.7454 11.5208C30.6016 11.4395 30.4389 11.3967 30.2735 11.3967C30.108 11.3967 29.9453 11.4395 29.8015 11.5208L22.0087 15.9926C21.7125 16.1583 21.5459 16.4712 21.5459 16.8024V25.7651C21.5459 26.0963 21.731 26.4092 22.0087 26.5748L29.8015 31.0469C29.9453 31.1283 30.108 31.1711 30.2735 31.1711C30.4389 31.1711 30.6016 31.1283 30.7454 31.0469L38.5383 26.5748C38.8344 26.4092 39.0012 26.0963 39.0012 25.7651V16.8025C39.0012 16.4713 38.8159 16.1584 38.5383 15.9928L30.7454 11.5208Z" fill="url(#paint0_linear_601_641)"/>
<mask id="mask0_601_641" style="mask-type:luminance" maskUnits="userSpaceOnUse" x="21" y="11" width="19" height="21">
<path d="M30.7454 11.5208C30.6016 11.4395 30.4389 11.3967 30.2735 11.3967C30.108 11.3967 29.9453 11.4395 29.8015 11.5208L22.0087 15.9926C21.7125 16.1583 21.5459 16.4712 21.5459 16.8024V25.7651C21.5459 26.0963 21.731 26.4092 22.0087 26.5748L29.8015 31.0469C29.9453 31.1283 30.108 31.1711 30.2735 31.1711C30.4389 31.1711 30.6016 31.1283 30.7454 31.0469L38.5383 26.5748C38.8344 26.4092 39.0012 26.0963 39.0012 25.7651V16.8025C39.0012 16.4713 38.8159 16.1584 38.5383 15.9928L30.7454 11.5208Z" fill="white"/>
</mask>
<g mask="url(#mask0_601_641)">
<path d="M38.5567 15.9928L30.727 11.5208C30.65 11.4822 30.5694 11.4514 30.4862 11.4288L21.7124 26.3728C21.7851 26.4609 21.8729 26.5357 21.9717 26.5936L29.8014 31.0657C30.0236 31.1946 30.2827 31.2313 30.5232 31.1576L38.7604 16.1771C38.7048 16.1035 38.6307 16.0479 38.5567 15.9928Z" fill="url(#paint1_linear_601_641)"/>
</g>
<mask id="mask1_601_641" style="mask-type:luminance" maskUnits="userSpaceOnUse" x="21" y="11" width="19" height="21">
<path d="M30.7454 11.5208C30.6016 11.4395 30.4389 11.3967 30.2735 11.3967C30.108 11.3967 29.9453 11.4395 29.8015 11.5208L22.0087 15.9926C21.7125 16.1583 21.5459 16.4712 21.5459 16.8024V25.7651C21.5459 26.0963 21.731 26.4092 22.0087 26.5748L29.8015 31.0469C29.9453 31.1283 30.108 31.1711 30.2735 31.1711C30.4389 31.1711 30.6016 31.1283 30.7454 31.0469L38.5383 26.5748C38.8344 26.4092 39.0012 26.0963 39.0012 25.7651V16.8025C39.0012 16.4713 38.8159 16.1584 38.5383 15.9928L30.7454 11.5208Z" fill="white"/>
</mask>
<g mask="url(#mask1_601_641)">
<path fill-rule="evenodd" clip-rule="evenodd" d="M38.5753 26.575C38.7974 26.4462 38.964 26.2253 39.0381 25.9861L30.4491 11.4103C30.227 11.3736 29.9862 11.3919 29.7829 11.5207L22.0085 15.9745L30.3935 31.1759C30.5155 31.1562 30.634 31.119 30.7452 31.0656L38.5753 26.575Z" fill="url(#paint2_linear_601_641)"/>
<path fill-rule="evenodd" clip-rule="evenodd" d="M38.5754 26.575L30.7641 31.0471C30.6538 31.1029 30.5349 31.1402 30.4124 31.1575L30.5605 31.4336L39.2232 26.4463V26.3358L39.0011 25.9677C38.9641 26.2253 38.7975 26.4462 38.5754 26.575Z" fill="url(#paint3_linear_601_641)"/>
<path fill-rule="evenodd" clip-rule="evenodd" d="M38.5754 26.575L30.7641 31.0471C30.6538 31.1029 30.5349 31.1402 30.4124 31.1575L30.5605 31.4336L39.2232 26.4463V26.3358L39.0011 25.9677C38.9641 26.2253 38.7975 26.4462 38.5754 26.575Z" fill="url(#paint4_linear_601_641)"/>
</g>
</g>
<defs>
<linearGradient id="paint0_linear_601_641" x1="1211.79" y1="357.191" x2="364.628" y2="1696.03" gradientUnits="userSpaceOnUse">
<stop stop-color="#41873F"/>
<stop offset="0.3288" stop-color="#418B3D"/>
<stop offset="0.6352" stop-color="#419637"/>
<stop offset="0.9319" stop-color="#3FA92D"/>
<stop offset="1" stop-color="#3FAE2A"/>
</linearGradient>
<linearGradient id="paint1_linear_601_641" x1="759.498" y1="1101.92" x2="2893.06" y2="-63.95" gradientUnits="userSpaceOnUse">
<stop offset="0.1376" stop-color="#41873F"/>
<stop offset="0.4032" stop-color="#54A044"/>
<stop offset="0.7136" stop-color="#66B848"/>
<stop offset="0.9081" stop-color="#6CC04A"/>
</linearGradient>
<linearGradient id="paint2_linear_601_641" x1="-52.7343" y1="1000.45" x2="1750.49" y2="1000.45" gradientUnits="userSpaceOnUse">
<stop offset="0.09192" stop-color="#6CC04A"/>
<stop offset="0.2864" stop-color="#66B848"/>
<stop offset="0.5968" stop-color="#54A044"/>
<stop offset="0.8624" stop-color="#41873F"/>
</linearGradient>
<linearGradient id="paint3_linear_601_641" x1="-884.69" y1="300.767" x2="918.518" y2="300.767" gradientUnits="userSpaceOnUse">
<stop offset="0.09192" stop-color="#6CC04A"/>
<stop offset="0.2864" stop-color="#66B848"/>
<stop offset="0.5968" stop-color="#54A044"/>
<stop offset="0.8624" stop-color="#41873F"/>
</linearGradient>
<linearGradient id="paint4_linear_601_641" x1="1181.22" y1="-1127.72" x2="729.454" y2="1253.22" gradientUnits="userSpaceOnUse">
<stop stop-color="#41873F"/>
<stop offset="0.3288" stop-color="#418B3D"/>
<stop offset="0.6352" stop-color="#419637"/>
<stop offset="0.9319" stop-color="#3FA92D"/>
<stop offset="1" stop-color="#3FAE2A"/>
</linearGradient>
<clipPath id="clip0_601_641">
<rect width="82" height="50" fill="white"/>
</clipPath>
</defs>
</svg>
