<svg width="50" height="50" viewBox="0 0 50 50" fill="none" xmlns="http://www.w3.org/2000/svg">
<g clip-path="url(#clip0_601_670)">
<path fill-rule="evenodd" clip-rule="evenodd" d="M25 0.590637C15.823 0.590637 8.38086 8.03087 8.38086 17.2098C8.38086 24.5524 13.1426 30.782 19.7461 32.9793C20.5766 33.1332 20.8816 32.6188 20.8816 32.1797C20.8816 31.7836 20.866 30.4742 20.859 29.086C16.2352 30.091 15.2598 27.125 15.2598 27.125C14.5039 25.2039 13.4145 24.693 13.4145 24.693C11.9066 23.6617 13.5277 23.6828 13.5277 23.6828C15.1969 23.8 16.0758 25.3957 16.0758 25.3957C17.5578 27.9363 19.9637 27.2016 20.9117 26.777C21.0613 25.7027 21.4918 24.9692 21.9672 24.5543C18.2758 24.1344 14.3953 22.709 14.3953 16.341C14.3953 14.5266 15.0445 13.0442 16.1078 11.8801C15.9352 11.4613 15.3664 9.77072 16.2687 7.48165C16.2687 7.48165 17.6641 7.03556 20.8391 9.18595C22.1652 8.81759 23.5871 8.63283 24.9992 8.62658C26.4117 8.63322 27.8344 8.81798 29.1625 9.18595C32.3344 7.03595 33.7281 7.48204 33.7281 7.48204C34.6328 9.77111 34.0641 11.4613 33.8914 11.8805C34.957 13.0438 35.6016 14.5266 35.6016 16.3414C35.6016 22.7242 31.7137 24.1297 28.0129 24.5406C28.609 25.0563 29.1402 26.068 29.1402 27.6188C29.1402 29.8422 29.1215 31.6317 29.1215 32.1789C29.1215 32.6203 29.4207 33.1391 30.2629 32.9758C36.8629 30.7758 41.6184 24.5485 41.6184 17.2082C41.6191 8.03126 34.1785 0.590637 25 0.590637Z" fill="#8D33AE"/>
<path d="M14.6757 24.4516C14.6386 24.5344 14.5085 24.559 14.3906 24.5023C14.2695 24.4477 14.2023 24.3356 14.2413 24.2523C14.2765 24.168 14.407 24.1441 14.5277 24.2008C14.6488 24.2555 14.7171 24.3688 14.6757 24.4516ZM15.3488 25.2031C15.2695 25.2762 15.1144 25.2422 15.0089 25.1258C14.9003 25.0098 14.88 24.8547 14.9605 24.7805C15.0417 24.707 15.1921 24.7414 15.3003 24.8574C15.4097 24.9746 15.4312 25.1281 15.3484 25.2027L15.3488 25.2031ZM16.0038 26.1594C15.9023 26.2305 15.7355 26.1641 15.6328 26.016C15.5304 25.8688 15.5304 25.6918 15.6347 25.6203C15.7378 25.5492 15.9019 25.6133 16.0058 25.7598C16.1081 25.9102 16.1081 26.0875 16.0038 26.1594ZM16.9015 27.0844C16.8105 27.1848 16.6163 27.1578 16.4745 27.0207C16.3292 26.8867 16.289 26.6965 16.38 26.5961C16.4726 26.4957 16.6675 26.5238 16.8105 26.6598C16.955 26.7934 16.9988 26.9844 16.9015 27.0844ZM18.1406 27.6211C18.0999 27.7516 17.9132 27.8106 17.7249 27.7555C17.5367 27.6984 17.414 27.5461 17.4515 27.4148C17.4906 27.2836 17.6788 27.2223 17.8683 27.2813C18.0558 27.3375 18.1792 27.4883 18.1406 27.6211ZM19.4999 27.7207C19.505 27.8574 19.3453 27.9715 19.1476 27.9738C18.9492 27.9785 18.7882 27.8676 18.7859 27.7324C18.7859 27.5941 18.9421 27.4816 19.1406 27.4785C19.3382 27.4746 19.4999 27.5848 19.4999 27.7207ZM20.7656 27.5055C20.789 27.6391 20.6523 27.7766 20.4558 27.8129C20.2628 27.8488 20.0847 27.766 20.0597 27.6332C20.0363 27.4965 20.1757 27.3598 20.3683 27.3238C20.5648 27.2895 20.7406 27.3695 20.7656 27.5055Z" fill="#8D33AE"/>
<path d="M9.70903 42.3055H5.52935C5.47755 42.3055 5.42787 42.3261 5.39124 42.3627C5.35461 42.3993 5.33403 42.449 5.33403 42.5008V44.5445C5.33403 44.5963 5.35461 44.646 5.39124 44.6827C5.42787 44.7193 5.47755 44.7399 5.52935 44.7399H7.15942V47.2789C7.15942 47.2789 6.79341 47.4039 5.78052 47.4039C4.58677 47.4039 2.91841 46.968 2.91841 43.2992C2.91841 39.6301 4.65591 39.1469 6.28716 39.1469C7.69888 39.1469 8.30669 39.3953 8.69419 39.5152C8.81528 39.552 8.92856 39.4309 8.92856 39.3231L9.39458 37.3485C9.39527 37.3189 9.38881 37.2896 9.37575 37.2631C9.36269 37.2366 9.34342 37.2136 9.31958 37.1961C9.16216 37.0836 8.20356 36.5477 5.7813 36.5477C2.99067 36.5477 0.128174 37.7344 0.128174 43.4422C0.128174 49.1492 3.40552 49.9996 6.16724 49.9996C8.45396 49.9996 9.84107 49.0223 9.84107 49.0223C9.8981 48.991 9.90435 48.9109 9.90435 48.8738V42.5004C9.90435 42.4486 9.88377 42.3989 9.84714 42.3623C9.81051 42.3257 9.76083 42.3055 9.70903 42.3055ZM31.0571 37.0352H28.7032C28.6775 37.0353 28.6521 37.0404 28.6284 37.0504C28.6047 37.0603 28.5832 37.0748 28.5652 37.0931C28.5471 37.1113 28.5328 37.133 28.5231 37.1567C28.5134 37.1805 28.5085 37.206 28.5086 37.2317L28.5094 41.7801H24.8407V37.2317C24.8408 37.206 24.8359 37.1806 24.8263 37.1568C24.8166 37.1331 24.8023 37.1114 24.7843 37.0932C24.7663 37.075 24.7448 37.0604 24.7212 37.0505C24.6975 37.0405 24.6722 37.0353 24.6465 37.0352H22.293C22.2673 37.0353 22.2419 37.0404 22.2182 37.0504C22.1946 37.0603 22.1731 37.0748 22.155 37.0931C22.1369 37.1113 22.1226 37.133 22.1129 37.1567C22.1032 37.1805 22.0983 37.206 22.0985 37.2317V49.5481C22.0985 49.6563 22.186 49.7445 22.293 49.7445H24.6465C24.6722 49.7444 24.6976 49.7392 24.7213 49.7292C24.7449 49.7192 24.7664 49.7047 24.7844 49.6864C24.8025 49.6681 24.8167 49.6464 24.8264 49.6226C24.836 49.5988 24.8409 49.5734 24.8407 49.5477V44.2797H28.5094L28.5032 49.5477C28.5032 49.6563 28.5907 49.7445 28.6985 49.7445H31.0571C31.0828 49.7444 31.1082 49.7392 31.1318 49.7292C31.1555 49.7192 31.1769 49.7047 31.195 49.6864C31.213 49.6681 31.2273 49.6464 31.2369 49.6226C31.2466 49.5988 31.2514 49.5734 31.2512 49.5477V37.2313C31.2515 37.2056 31.2466 37.1801 31.237 37.1564C31.2274 37.1326 31.2131 37.111 31.1951 37.0927C31.177 37.0745 31.1555 37.06 31.1318 37.0501C31.1081 37.0403 31.0827 37.0352 31.0571 37.0352ZM12.6329 37.3152C11.7954 37.3152 11.1157 38 11.1157 38.8477C11.1157 39.6942 11.7954 40.3809 12.6329 40.3809C13.4711 40.3809 14.1504 39.6942 14.1504 38.8477C14.1504 38 13.4708 37.3152 12.6329 37.3152ZM13.7875 41.0684H11.4415C11.3336 41.0684 11.2375 41.1793 11.2375 41.2871V49.4324C11.2375 49.6719 11.3868 49.743 11.5797 49.743H13.693C13.9254 49.743 13.9821 49.6289 13.9821 49.4285V41.2649C13.9822 41.2392 13.9772 41.2138 13.9675 41.1901C13.9578 41.1663 13.9435 41.1447 13.9254 41.1265C13.9074 41.1083 13.8859 41.0938 13.8622 41.0839C13.8386 41.074 13.8132 41.0685 13.7875 41.0684ZM40.1961 41.0867H37.8602C37.8346 41.0869 37.8092 41.0922 37.7856 41.1022C37.762 41.1122 37.7405 41.1268 37.7226 41.145C37.7046 41.1633 37.6903 41.185 37.6807 41.2087C37.6711 41.2325 37.6662 41.258 37.6665 41.2836V47.3227C37.6665 47.3227 37.0727 47.7563 36.2309 47.7563C35.3891 47.7563 35.1657 47.3746 35.1657 46.55V41.2836C35.1659 41.2579 35.161 41.2325 35.1514 41.2087C35.1417 41.1849 35.1275 41.1632 35.1094 41.1449C35.0914 41.1266 35.0699 41.1121 35.0463 41.1021C35.0226 41.0921 34.9972 41.0869 34.9715 41.0867H32.6012C32.5755 41.0868 32.5501 41.092 32.5264 41.102C32.5026 41.1119 32.4811 41.1265 32.4631 41.1448C32.445 41.1631 32.4307 41.1847 32.421 41.2086C32.4114 41.2324 32.4065 41.2579 32.4067 41.2836V46.9485C32.4067 49.3977 33.7719 49.9969 35.6497 49.9969C37.1903 49.9969 38.4325 49.1453 38.4325 49.1453C38.4325 49.1453 38.4911 49.5945 38.5184 49.6473C38.5458 49.7004 38.6149 49.7539 38.6903 49.7539L40.1981 49.7473C40.2239 49.7473 40.2494 49.7422 40.2732 49.7323C40.297 49.7224 40.3186 49.7078 40.3368 49.6895C40.3549 49.6712 40.3693 49.6495 40.379 49.6256C40.3887 49.6018 40.3936 49.5762 40.3934 49.5504L40.3922 41.2824C40.392 41.2306 40.3714 41.181 40.3349 41.1443C40.2983 41.1076 40.2487 41.0868 40.1969 41.0863L40.1961 41.0867ZM46.5797 40.8102C45.2532 40.8102 44.3508 41.402 44.3508 41.402V37.2313C44.351 37.2056 44.3461 37.1802 44.3364 37.1564C44.3267 37.1327 44.3125 37.1111 44.2945 37.0928C44.2764 37.0746 44.255 37.0601 44.2313 37.0501C44.2077 37.0401 44.1823 37.0349 44.1567 37.0348H41.7969C41.7712 37.0348 41.7457 37.0399 41.7219 37.0498C41.6981 37.0596 41.6766 37.0741 41.6584 37.0924C41.6402 37.1107 41.6259 37.1323 41.6161 37.1562C41.6064 37.18 41.6015 37.2055 41.6016 37.2313V49.5477C41.6015 49.5734 41.6064 49.5989 41.6161 49.6228C41.6259 49.6466 41.6402 49.6683 41.6584 49.6865C41.6766 49.7048 41.6981 49.7193 41.7219 49.7292C41.7457 49.7391 41.7712 49.7442 41.7969 49.7442H43.4344C43.5086 49.7442 43.5641 49.7063 43.6051 49.6395C43.6454 49.5731 43.7043 49.0715 43.7043 49.0715C43.7043 49.0715 44.6692 49.9856 46.4965 49.9856C48.6411 49.9856 49.8715 48.8981 49.8715 45.102C49.8715 41.3059 47.9067 40.8098 46.5793 40.8098L46.5797 40.8102ZM45.6579 47.7492C44.8481 47.7246 44.2985 47.357 44.2985 47.357V43.4567C44.2985 43.4567 44.8407 43.1246 45.5055 43.0645C46.3465 42.9891 47.1571 43.2434 47.1571 45.2496C47.1571 47.3656 46.7918 47.7832 45.6583 47.7488L45.6579 47.7492ZM20.7793 47.7031C20.6766 47.7031 20.4133 47.7449 20.1426 47.7449C19.2754 47.7449 18.9813 47.3418 18.9813 46.8199V43.3567H20.7469C20.7727 43.3567 20.7982 43.3516 20.822 43.3416C20.8458 43.3317 20.8674 43.3172 20.8856 43.2989C20.9037 43.2806 20.9181 43.2589 20.9278 43.235C20.9375 43.2111 20.9424 43.1856 20.9422 43.1598V41.2629C20.9423 41.2372 20.9374 41.2117 20.9276 41.1879C20.9178 41.1641 20.9035 41.1425 20.8853 41.1243C20.8672 41.1061 20.8456 41.0916 20.8218 41.0818C20.7981 41.0719 20.7726 41.0668 20.7469 41.0668H18.9813L18.9786 38.7348C18.9786 38.6461 18.9333 38.602 18.8309 38.602H16.4247C16.3317 38.602 16.2813 38.6434 16.2813 38.7328V41.143C16.2813 41.143 15.0754 41.434 14.9942 41.4574C14.9536 41.4693 14.918 41.4939 14.8926 41.5277C14.8673 41.5616 14.8536 41.6027 14.8536 41.6449V43.1594C14.8534 43.185 14.8583 43.2105 14.868 43.2342C14.8777 43.258 14.8919 43.2796 14.9099 43.2978C14.928 43.3161 14.9494 43.3306 14.9731 43.3406C14.9967 43.3505 15.0221 43.3557 15.0477 43.3559H16.2813V46.9996C16.2813 49.7067 18.1797 49.9723 19.461 49.9723C20.0458 49.9723 20.7461 49.7848 20.8618 49.7418C20.9321 49.7156 20.9723 49.6434 20.9723 49.5649L20.9739 47.8988C20.9731 47.8472 20.9523 47.7979 20.9158 47.7613C20.8794 47.7248 20.8302 47.7038 20.7786 47.7027L20.7793 47.7031Z" fill="#5D2C8C"/>
</g>
<defs>
<clipPath id="clip0_601_670">
<rect width="50" height="50" fill="white"/>
</clipPath>
</defs>
</svg>
